<svg xmlns="http://www.w3.org/2000/svg" width="810" height="467" fill="none"><path fill="#E49963" d="M356.418 379.598c0 1.623-.791 2.747-2.165 3.538h-.042c-2.539 1.415-6.994 1.54-11.823 1.332-.625-.042-1.166-.042-1.666-.042H340.056c-4.787.125-4.288 1.54-13.405 2.331-10.408.874-14.239-2.289-14.821-3.746-.5-1.249 3.955-2.622 8.909-4.204.25-.083.499-.166.708-.249.666-.209 1.332-.417 1.998-.666 5.953-1.956 11.782-4.329 13.239-10.322 1.54-6.368-3.081-24.14-3.081-24.14l16.487-1.789s1.582 18.562 2.622 24.389c.542 3.08 1.957 5.535 2.79 8.199.041.167.125.375.166.541.333 1.582.75 3.163.75 4.828Z"/><path fill="#C65447" d="M356.418 379.598c0 1.623-.791 2.747-2.165 3.538h-.042c-2.706 1.248-7.077 1.415-11.823 1.29h-2.332c-4.787.125-4.288 1.54-13.405 2.331-10.408.874-14.239-2.289-14.821-3.746-.5-1.249 3.955-2.622 8.909-4.204 1.415.541 8.077 2.872 15.945 1.374 6.953-1.29 13.822-4.745 18.776-5.91.042.166.125.374.167.541.374 1.54.791 3.121.791 4.786Z"/><path fill="#E49963" d="M249.548 358.58c-.916 4.578-7.452 3.829-14.738 2.039-7.286-1.789-5.537.333-15.903-.791-10.367-1.165-13.531-4.994-13.822-6.534-.292-1.373 4.829-1.831 10.325-2.497.707-.083 1.373-.167 2.081-.25 6.203-.791 10.741-4.786 16.403-8.074 5.329-3.122 13.322-15.816 13.322-15.816l14.239 1.124s-7.452 11.321-10.367 16.273c-1.707 2.914-1.623 6.743-1.415 9.698.083 1.54.166 3.205-.125 4.828Z"/><path fill="#C65447" d="M234.81 360.578c-7.286-1.79-5.537.333-15.903-.791-10.367-1.165-13.531-4.994-13.822-6.534-.292-1.374 4.829-1.832 10.325-2.498l.041.125s6.203 4.412 14.863 4.62c7.036.166 14.488-1.831 19.359-1.748.125 1.623.208 3.246-.125 4.87-.916 4.494-7.452 3.745-14.738 1.956Z"/><path fill="#FFB27D" d="M281.188 149.772s-3.372-8.282-7.119-8.657c-3.747-.333-15.57-2.205-16.444-.499-.833 1.706 0 7.783 2.539 9.989 2.54 2.206 18.277 5.743 18.277 5.743l2.747-6.576Z"/><path fill="#365DA4" d="m304.044 267.64 30.642 82.449s4.704.458 9.242-.832c4.163-1.207 8.909-4.329 8.909-4.329s-7.618-79.161-21.524-95.642c-13.988-16.482-27.269 18.354-27.269 18.354Z"/><path fill="#466AA5" d="M425.235 234.302s-88.051-29.758-107.702-23.432c-19.65 6.327-78.601 123.612-78.601 123.612s1.332 1.79 4.954 3.121c3.372 1.249 11.574 1.166 11.574 1.166s53.205-45.616 59.575-58.893c6.37-13.276 8.868-25.97 15.196-24.722 6.328 1.249 81.724 31.049 98.835 13.319 17.11-17.731 12.614-40.788 12.614-40.788l-16.445 6.617Z"/><path fill="#B74B42" d="M371.447 95.791c-1.416-2.913-2.998-8.074-3.747-17.23.125.915 1.707 12.485 6.161 19.061 18.319 12.028 53.414 52.15 52.707 59.767 0 0 12.364-20.977 12.573-21.102 0 0 22.814-29.009-4.205-45.615-13.739-8.45-13.656-19.27-13.114-28.676.583-9.407-3.747-49.944-31.266-39.331 0 0-4.413-1.956-6.411-1.665 0 0 1.623.291 2.456 1.165-3.206-.208-7.744.042-11.574 2.206-10.075 5.744-19.109 57.186-3.58 71.42Z"/><path fill="#FFB27D" d="M374.944 98.205c-.083.042 8.826 4.662 15.57 2.83 6.328-1.706 10.45-9.905 10.367-9.947-2.665-.541-3.456-4.203-3.372-20.02l-1.208.25-20.358 4.038s.458 6.41.458 12.444c0 5.078-.291 9.864-1.457 10.405Z"/><path fill="#E8945B" d="M375.901 75.397s.458 6.41.458 12.445c11.408-.333 17.403-10.697 19.859-16.482l-20.317 4.037Z"/><path fill="#B74B42" d="M398.341 69.154s5.954-9.406 7.411-17.48c1.041-5.744-1.915-27.095-23.356-24.015 0 0-6.245.624-12.073 4.578-4.663 3.163-11.366 9.947-3.872 28.552l1.957 6.284 29.933 2.081Z"/><path fill="#FFB27D" d="M372.113 81.1s26.936.457 26.978-16.316c0-16.773 3.497-28.01-13.697-29.009-17.194-.999-20.567 5.41-21.899 10.988-1.415 5.577 1.582 33.795 8.618 34.336Z"/><path fill="#B74B42" d="M397.55 38.855s-18.401-12.57-24.23-3.87c-1.748-1.499-4.912-2.623-9.075 2.413-6.245 7.575-.708 20.935-.708 20.935 2.581.291 3.164-8.49 4.496-12.777.999-3.205 4.413-6.493 5.995-7.95 2.331 5.286 8.826 17.98 17.735 20.27C403.087 60.788 408 57.75 408 57.75s-8.66-6.826-10.45-18.896Z"/><path fill="#F1A34F" d="M434.936 170.666c2.664-11.155-6.37-32.755-15.82-50.652-8.577-16.232-17.444-29.384-18.235-28.884-22.565 13.401-24.605 2.247-24.605 2.247s-20.524 2.706-26.311 12.736c-8.035 13.818-16.778 55.313-25.396 54.689-3.955-.292-43.63-15.192-43.63-15.192s-6.62 6.202-5.329 13.777c0 0 19.608 13.11 36.178 21.517 8.784 4.412 16.694 7.533 20.4 6.659 7.535-1.789 19.359-19.27 25.728-29.592 0-.041.042-.041.042-.083 8.118 46.032-2.914 56.52 2.664 61.39 5.912 5.119 14.364-2.456 32.931 5.618 12.199 5.286 29.101 12.944 40.509 14.276 5.953.708 10.449-.333 11.865-4.37 4.205-11.778-16.07-42.869-10.991-64.136Z"/><path fill="#fff" d="M378.108 70.944s-.5 2.124-5.787 1.79c0 0-4.455-.29-4.33-2.622-.041 0 4.288-1.665 10.117.832Z"/><path fill="#E58638" d="M445.927 234.76c-1.457 4.038-5.912 5.078-11.865 4.37-7.869-3.412-41.924-16.606-41.549-25.554.583-13.235 6.536-13.652 2.331-29.967-3.372-13.11 19.65-40.08 24.688-45.365 9.45 17.896 18.11 21.309 15.446 32.463-5.121 21.226 15.154 52.317 10.949 64.053ZM357.875 157.93c-6.37 10.322-18.152 27.802-25.729 29.592-3.705.874-11.657-2.206-20.4-6.66 6.412 1.665 12.615 1.624 18.652 1.041 6.536-.624 8.451-8.657 18.776-20.685 6.702-7.825 8.368-5.827 8.701-3.288Z"/><path fill="#FFB27D" d="M389.432 183.276s-5.704-4.453-11.074-3.371c-5.371 1.041-8.035 4.745-7.827 6.451.208 1.707 3.081 6.451 7.161 6.867 4.121.417 15.82-2.538 15.82-2.538l-4.08-7.409Z"/><path fill="#F1A34F" d="M400.839 91.13s21.94 1.332 29.559 11.945c10.699 14.9 29.267 75.831 24.23 89.774l-66.82-.291s-1.623-7.575.625-11.238c2.248-3.662 38.843-9.572 40.549-11.279 1.707-1.706-21.107-32.921-21.107-37.999 0-5.036-7.036-40.912-7.036-40.912Z"/><path fill="#FFB27D" d="M487.017 186.939s-6.119-2.04-9.034-1.415c-2.956.624-12.073 4.869-12.281 5.785-.208.915 0 1.581 0 1.581h21.357s4.788-.915 5.579-3.745c.791-2.789-5.621-2.206-5.621-2.206Z"/><path fill="#AD7041" d="M566.618 455.762c-.167 1.748-1.124 2.872-2.665 3.538h-.041c-2.831 1.249-7.619.957-12.74.25-.666-.084-1.249-.167-1.79-.208-.125 0-.291-.042-.416-.042s-.208 0-.333-.042c-5.121-.333-4.746 1.249-14.53 1.207-11.157-.041-14.946-3.829-15.445-5.41-.417-1.374 4.454-2.414 9.95-3.621.25-.042.541-.125.791-.167.708-.166 1.457-.333 2.206-.499 6.537-1.54 12.99-3.455 15.113-9.739 2.248-6.659 1.748-26.346 1.748-26.346h19.776s-5.204 21.768-4.663 28.052c.291 3.33 1.915 4.287 2.498 7.2l.125.625c.291 1.706.582 3.454.416 5.202Z"/><path fill="#415DA5" d="M589.641 242.793c-1.666 9.364-4.039 19.062-6.12 29.134-3.331 16.19-5.829 33.379-3.248 51.9.333 2.372.5 5.036.542 7.825.499 32.754-14.155 92.063-14.155 92.063s-3.955 1.706-10.617 1.373c-3.413-.166-8.701-2.372-8.701-2.372s-1.374-36.792-1.457-86.278c-.041-35.877-7.119-83.074-8.534-110.834-.875-16.773.999-39.165.999-39.165s29.184-23.432 39.634-11.445c10.366 11.903 17.901 32.755 11.657 67.799Z"/><path fill="#355493" d="M580.274 323.827c.333 2.372.499 5.036.541 7.825-21.857-31.632-26.686-100.638-26.686-100.638l23.98 11.654s2.622 12.944 5.412 29.217c-3.289 16.232-5.829 33.421-3.247 51.942Z"/><path fill="#AD7041" d="M629.732 455.762c-.166 1.748-1.124 2.872-2.664 3.538h-.042c-2.831 1.249-7.618.957-12.739.25-.666-.083-1.249-.167-1.79-.208-.125 0-.292-.042-.417-.042s-.208 0-.333-.042c-5.121-.333-4.746 1.249-14.529 1.207-11.158-.041-14.946-3.829-15.446-5.41-.416-1.374 4.455-2.414 9.95-3.621.25-.042.541-.125.791-.167a184.22 184.22 0 0 1 2.207-.499c6.536-1.54 12.989-3.455 15.112-9.739 2.248-6.659-.957-26.054-.957-26.054l18.318-1.54s-1.124 22.1-.583 28.385c.291 3.329 1.998 5.202 2.623 8.116l.125.624c.249 1.706.541 3.454.374 5.202Z"/><path fill="#415DA5" d="M627.151 425.421s-4.704 2.248-8.118 2.914c-3.414.666-10.45-.666-10.45-.666-1.29-14.234-4.205-36.542-9.95-61.681-6.536-28.634-16.278-62.43-29.808-94.477-2.915-6.826-14.822-39.206-16.862-47.406-6.119-24.68.042-22.017.042-22.017l53.539-6.284s6.578 3.371 9.617 38.249c.916 10.446 1.041 55.521 2.373 64.053 1.291 8.074 2.831 14.817 4.58 19.187 10.033 24.472 5.037 108.128 5.037 108.128Z"/><path fill="#B84C42" d="M629.732 455.762c-.166 1.748-1.124 2.872-2.664 3.538h-.042c-2.997 1.082-7.702.832-12.739.25-.666-.084-1.249-.125-1.79-.167-.125 0-.292-.041-.417-.041s-.208 0-.333-.042c-5.121-.333-4.746 1.249-14.529 1.207-11.158-.042-14.946-3.829-15.446-5.411-.416-1.373 4.455-2.414 9.95-3.621 1.457.708 8.327 3.829 16.861 2.997 7.536-.708 15.196-3.746 20.608-4.495l.125.624c.291 1.665.583 3.413.416 5.161ZM566.618 455.762c-.167 1.748-1.124 2.872-2.665 3.538h-.041c-2.998 1.082-7.702.832-12.74.25-.666-.084-1.249-.125-1.79-.167-.125 0-.291-.041-.416-.041s-.208 0-.333-.042c-5.121-.333-4.746 1.249-14.53 1.207-11.157-.042-14.946-3.829-15.445-5.411-.417-1.373 4.454-2.414 9.95-3.621 1.457.708 8.326 3.829 16.861 2.997 7.535-.708 15.196-3.746 20.608-4.495l.125.624c.291 1.665.582 3.413.416 5.161Z"/><path fill="#2B478B" d="M545.219 35.525c-1.79-14.775 2.79-38.415 32.307-34.628 29.475 3.788 38.759 32.755 32.848 45.616-5.954 12.902 8.576 15.982 13.114 29.842 3.913 11.903 5.287 26.678 11.615 33.296 20.4 21.392-19.609 54.272-43.714 47.321-43.922-12.61-49.584-14.525-48.043-49.028.791-17.688 14.571-24.514 5.828-29.633-21.149-12.32.125-9.365-3.955-42.786Z"/><path fill="#FFB27D" d="m588.558 74.232-8.118 20.976-17.569.874-8.742-13.069c9.908-7.533 9.492-21.892 8.992-26.928-.125-1.123-.208-1.79-.208-1.79l21.94-6.659c.25 5.786.583 10.322.958 13.86 1.207 12.403 2.747 12.736 2.747 12.736Z"/><path fill="#FFB27D" d="M554.087 73.441c1.124 0 20.275-3.912 52.623 4.37 0 0-17.694 81.117-11.699 96.392 6.037 15.275 8.285 28.843 8.285 28.843l-65.279.791s.916-52.483-2.082-71.046c-2.997-18.521 18.152-59.35 18.152-59.35Z"/><path fill="#F1A34F" d="M602.214 163.923c.957 10.738 10.991 35.294 8.826 40.496-2.29 5.494-5.454 8.282-12.365 9.864-4.788 1.082-11.324 1.623-20.608 2.081-19.65.957-40.716-1.498-43.589-10.821-1.374-4.495-.832-21.851-.125-29.842 1.499-16.565-1.665-40.371-2.123-55.771-.375-12.86 7.369-42.077 7.369-42.077s3.497-2.206 14.446-4.412c0 0 1.166 15.191 9.076 16.481 13.697 2.248 24.73-10.28 27.977-15.316 0 0 15.737 3.954 20.358 9.24 4.371 4.994-1.624 41.911-2.956 45.449-1.166 3.038-2.248 5.993-3.164 8.99-2.498 7.824-4.038 15.816-3.122 25.638Z"/><path fill="#FFB27D" d="M658.209 187.022s6.12-1.998 9.034-1.415c2.956.624 12.073 4.828 12.281 5.743.209.916 0 1.54 0 1.54h-21.357s-4.787-.915-5.578-3.704c-.75-2.788 5.62-2.164 5.62-2.164Z"/><path fill="#E8945B" d="M585.811 62.828c-7.994-5.37-18.069-5.619-22.648-5.41-.125-1.124-.209-1.79-.209-1.79l21.941-6.66c.249 5.786.582 10.322.916 13.86Z"/><path fill="#FFB27D" d="M557.209 55.752s26.27 5.286 29.309-11.112c3.039-16.398 8.452-26.762-8.16-30.84-16.653-4.08-21.066 1.581-23.397 6.825-2.331 5.244-4.496 33.338 2.248 35.127Z"/><path fill="#2B478B" d="M591.597 14.882c-4.454-4.995-10.866-5.952-15.528-5.91 2.831-3.413-8.535-10.905-21.483 1.872-5.578 5.494-4.746 16.316-1.748 22.6 0 0 4.579-13.443 12.948-16.357 1.873-.665 3.621-1.748 5.245-3.038.999 2.539 3.081 6.16 7.202 10.655 8.618 9.448 6.953 28.51 6.953 28.51s14.155-29.592 6.411-38.332Z"/><path fill="#fff" d="M565.369 47.679s-.708 1.956-5.662 1.082c0 0-4.163-.75-3.788-2.914.041-.042 4.288-1.124 9.45 1.832Z"/><path fill="#B64C41" d="M637.434 147.733c-9.95-38.332-15.403-60.225-23.522-66.842-7.202-5.869-22.731-6.41-22.731-6.41-.25 4.62-.042 9.24.541 13.818l-19.109 36.376s-9.783 19.353-13.28 40.538c-2.623-21.018-5.246-40.538-5.246-40.538s-2.456-12.444-3.247-23.806c2.289-8.865 2.081-18.147 3.122-27.428l-1.207.083c-3.789.25-15.529 1.457-21.524 6.368-8.16 6.7-9.95 36.043-23.522 67.424 0 0-16.445 27.636-21.649 38.582 0 0 .999 1.499 2.956 2.622 1.915 1.082 4.288 1.54 4.288 1.54s29.642-29.175 31.599-33.795c.624-1.499 4.246-6.826 8.659-14.65 0 0 1.166 41.703-1.415 59.683-.542 3.829 1.29 7.574 4.621 9.447 18.318 10.322 73.148 38.499 83.347 11.154 1.125-3.079-18.901-55.146-16.153-66.425.874-3.621 2.04-11.82 3.206-21.351 6.286 12.028 12.198 20.477 13.031 22.475 1.956 4.578 31.599 33.504 31.599 33.504s2.414-.416 4.288-1.499c1.956-1.123 2.956-2.622 2.956-2.622-5.163-10.862-21.608-38.248-21.608-38.248Z"/><path fill="#A53D38" d="m590.14 74.398-17.527 50.319 17.527-16.565-1.332-5.161s4.038.375 5.662-.707c1.624-1.041 5.454-26.762 5.454-26.762s-3.581-.583-4.746-.75c-1.249-.124-5.038-.374-5.038-.374ZM554.045 73.44s-3.705 39.79.083 51.235c0 0-10.824-17.147-8.826-20.727l3.914-2.58s-7.577-.999-6.162-5.327c1.416-4.37 7.536-22.017 7.536-22.017l3.455-.583Z"/><path fill="#699FF0" d="M167.033 467h605.206V329.862l-605.206-1.373V467ZM772.198 218.778H167.033v35.877h605.165v-35.877Z"/><path fill="#466AA5" d="M798.426 218.778H124.985c-6.37 0-11.532-5.161-11.532-11.529v-2.746c0-6.368 5.162-11.529 11.532-11.529h673.483c6.37 0 11.532 5.161 11.532 11.529v2.746c0 6.327-5.162 11.529-11.574 11.529Z"/><path fill="#5F9AA8" d="M249.132 193.016a.947.947 0 0 1-.209.125l.042-.125h.167Z"/><path fill="#233862" d="M86.266 465.502H42.72c-.583-.999-.916-2.664-1.124-4.537-.458-4.786.208-10.904.208-10.904s14.447-12.07 16.695-3.122c2.206 8.948 14.238 12.777 21.066 13.735 4.746.666 6.244 3.288 6.702 4.828Z"/><path fill="#233862" d="M47.965 465.502H3.085c-1.832-4.079-.666-15.441-.666-15.441s14.447-12.07 16.695-3.122c2.206 8.948 14.238 12.777 21.065 13.735.5.083.958.166 1.416.291 3.539.916 5.412 3.038 6.37 4.537Z"/><path fill="#2B478B" d="M22.902 223.731s.042 1.623.083 4.536c.417 18.771 1.999 91.398 3.54 131.853.083 1.456.124 2.913.166 4.287.041.749.041 1.456.083 2.205.916 19.562 3.58 38.749 6.245 54.065 3.414 19.561 6.91 32.838 6.91 32.838 13.032 2.622 21.483-2.331 21.483-2.331s3.497-30.341 4.87-48.695c.459-5.952 2.582-26.262 5.288-51.026 2.082-19.104 4.497-40.871 6.703-60.641.125-1.04.25-2.122.333-3.163 3.58-31.964 6.536-58.018 6.536-58.018l-23.064-2.206-39.176-3.704Z"/><path fill="#233862" d="m33.019 420.677 38.51-69.173c2.081-19.103 4.496-40.87 6.702-60.64.125-1.04.25-2.123.333-3.163 3.58-31.964 6.537-58.018 6.537-58.018l-23.065-2.206-39.134.791L33.02 420.677Z"/><path fill="#2B478B" d="M80.896 229.849S59.33 336.355 41.762 387.755c-17.57 51.401-17.777 65.677-17.777 65.677s-16.112 3.496-23.231-.583c0 0-4.038-97.474 6.578-123.32 7.036-17.106 12.406-53.565 10.574-66.675-1.831-13.111-3.538-39.456-3.538-39.456l66.528 6.451Z"/><path fill="#FFB27D" d="m55.5 84.429-21.274-5.993s3.622-8.824 4.871-18.064c.708-5.119.666-10.363-1.124-14.234-.125-.25-.25-.5-.333-.707-.791-1.498-.333-2.206.75-2.372 1.914-.334 5.745 1.04 7.327 2.372 2.456 2.04 14.196 7.99 14.82 8.324h.042s0 .083.042.25c.083.416.208 1.29.333 2.497.541 5.66 1.082 18.854-5.454 27.927Z"/><path fill="#699FF0" d="M20.154 235.551c5.08 3.621 13.115 4.911 21.982 4.786 10.325-.166 21.774-2.289 30.891-5.036 4.913-1.456 9.16-3.121 12.24-4.703 13.656-7.117 11.699-16.606 11.366-52.025C96.3 142.405 74.027 95.624 70.03 87.8c-7.12-13.943-39.176-8.782-39.176-8.782-7.036 3.371-9.534 14.609-10.2 29.259-.75 16.273.708 36.834.708 55.563 0 15.482-2.914 29.175-5.038 40.538-2.79 14.65-4.246 25.471 3.83 31.173Z"/><path fill="#4A75CB" d="M16.283 204.294c6.161 12.986 18.318 27.595 25.812 36.002 10.324-.167 21.773-2.289 30.89-5.036 3.83-9.198 5.538-24.556 1.957-49.903-2.706-19.311-22.44-97.1-22.44-97.1-15.944-2.08-25.853 6.618-31.931 19.937-.75 16.273.708 36.834.708 55.563.041 15.482-2.873 29.175-4.996 40.537ZM90.68 266.1H76.19v-4.495c0-7.45-6.078-13.526-13.53-13.526H50.67c-7.452 0-13.53 6.076-13.53 13.526v4.495H22.651c-4.33 0-7.91 3.538-7.91 7.908v36.834c0 4.328 3.539 7.907 7.91 7.907h67.986c4.33 0 7.91-3.537 7.91-7.907v-36.834c.041-4.37-3.539-7.908-7.869-7.908Zm-48.17-4.495c0-4.495 3.665-8.157 8.16-8.157h11.99c4.497 0 8.16 3.662 8.16 8.157v4.495H42.51v-4.495Z"/><path fill="#FFB27D" d="M60.83 239.005s8.326 16.066 4.162 22.309c-4.163 6.243-19.067-1.79-20.233-5.369-1.207-3.58 0-20.852 0-20.852l16.07 3.912Z"/><path fill="#699FF0" d="M25.192 113.271s3.08 44.242 3.08 62.514c-.04 18.312 14.53 66.966 14.53 66.966s9.659.791 13.406.292c4.371-.541 6.953-2.581 6.953-2.581s-3.206-57.477 2.914-79.536c6.12-22.017 6.411-66.3 6.411-66.3s-3.372-9.573-23.689-6.535c-24.105 3.621-23.605 25.18-23.605 25.18Z"/><path fill="#4A75CB" d="M33.81 63.327c-1.54 5.328-3.706 13.61-2.956 15.65 0 0 30.058 3.163 42.09 14.858 0 0-4.33-15.982-9.16-20.186-3.496-3.08-17.027-9.614-24.146-12.985-2.373-1.124-5.12.166-5.828 2.663Z"/><path fill="#E8945B" d="M60.912 56.502c-2.373 0-17.235.041-21.44 3.58a8.349 8.349 0 0 1-.416.29c.707-5.119.666-10.363-1.125-14.234.167-1.207.292-2.247.417-3.08 1.915-.333 5.745 1.041 7.327 2.373 2.456 2.04 14.197 7.99 14.821 8.324l.083.25c.084.416.209 1.29.333 2.497Z"/><path fill="#FFB27D" d="M70.488 55.544s-24.605 4.704-27.27-10.654c-2.705-15.358-7.701-25.097 7.91-28.718 15.571-3.663 19.651 1.665 21.816 6.576 2.123 4.911 3.872 31.215-2.456 32.796Z"/><path fill="#233862" d="M38.806 51.59s1.29-.957-3.706-8.532c-4.995-7.533-7.327-5.452-7.41-13.526-.042-8.033-3.04-12.86 6.286-18.105C43.302 6.183 41.803 1.355 47.423.19c5.58-1.166 13.74 3.454 18.527 2.497 4.787-.957 19.858 18.604 10.2 23.224 0 0-4.497.208-7.619-1.706-3.164-1.956-14.696-3.913-16.028-.375-1.333 3.538-8.66 25.055-13.697 27.76Z"/><path fill="#DEEDFF" d="m388.349 131.085-13.072-1.873a1.633 1.633 0 0 1-1.374-1.831l.833-5.869a1.633 1.633 0 0 1 1.832-1.373l13.072 1.873a1.633 1.633 0 0 1 1.374 1.831l-.833 5.868a1.634 1.634 0 0 1-1.832 1.374Z"/><path fill="#739AF0" d="m380.98 122.441-4.245-.605-.817 5.727 4.245.605.817-5.727ZM388.308 124.926l-5.287-.75c-.375-.041-.667-.416-.625-.832.042-.375.416-.666.833-.625l5.287.75c.375.041.666.416.624.832-.083.375-.416.666-.832.625ZM388.474 126.965l-6.203-.874c-.166-.042-.25-.167-.25-.292.042-.166.167-.25.292-.25l6.203.875c.166.041.25.166.25.291 0 .167-.125.25-.292.25ZM388.349 127.839l-6.203-.874c-.166-.042-.25-.167-.25-.292.042-.166.167-.25.292-.25l6.203.875c.167.041.25.166.25.291 0 .167-.125.25-.292.25Z"/><path fill="#DEEDFF" d="m600.049 123.76-12.032-.75c-.791-.041-1.415-.749-1.374-1.539l.333-5.369c.042-.791.75-1.416 1.541-1.374l12.031.749c.791.042 1.416.749 1.374 1.54l-.333 5.369c0 .791-.707 1.415-1.54 1.374Z"/><path fill="#739AF0" d="m592.707 116.389-3.906-.241-.325 5.276 3.906.24.325-5.275ZM599.591 118.141l-4.871-.291a.687.687 0 0 1-.625-.708.687.687 0 0 1 .708-.624l4.871.291a.687.687 0 0 1 .625.708c-.042.375-.375.666-.708.624ZM599.882 119.972l-5.703-.333c-.125 0-.25-.124-.25-.249s.125-.25.25-.25l5.703.333c.125 0 .25.125.25.25 0 .166-.125.249-.25.249ZM599.841 120.805l-5.704-.333a.269.269 0 0 1-.25-.25c0-.125.125-.25.25-.25l5.704.333c.125 0 .249.125.249.25s-.124.25-.249.25Z"/><path fill="#A53D38" d="M561.789 167.086c0-1.04.833-1.873 1.873-1.873 1.041 0 1.874.833 1.874 1.873a1.865 1.865 0 0 1-1.874 1.873 1.865 1.865 0 0 1-1.873-1.873ZM561.789 178.948c0-1.041.833-1.873 1.873-1.873 1.041 0 1.874.832 1.874 1.873 0 1.04-.833 1.873-1.874 1.873a1.866 1.866 0 0 1-1.873-1.873Z"/><path fill="#AFCDFB" d="m171.779 328.489 600.46 1.373v-75.207h-600.46v73.834Z" opacity=".9"/><path fill="#FFB27D" d="M303.17 193.016h-25.728a.911.911 0 0 1-.209.124l.042-.124 2.789-5.328s.833-.416 2.124-.957c2.706-1.124 7.327-2.705 9.658-1.623 3.248 1.54 10.367 5.077 11.324 7.908Z"/><path fill="#AA413E" d="M282.271 186.814s-1.082 4.037-4.829 6.201a.876.876 0 0 1-.209.125l.042-.125h-44.754c-1.374-1.207-3.664-3.579-5.954-7.325-.708-1.165-1.415-2.497-2.123-3.954-2.207-4.744-4.08-11.071-4.621-19.186-1.083-15.733-2.207-41.704-2.79-56.895-.291-7.325-.458-12.111-.458-12.111.292.166 17.736 11.695 21.358 47.322 0 0 .916 28.634 4.121 30.882 3.164 2.247 37.095 11.403 40.175 15.066 0-.042 0-.042.042 0Z"/><path fill="#2B478B" d="M210.705 40.853s-2.29-32.88-45.046-20.436c-9.7 2.83-8.451 32.09 15.029 43.243l30.017-22.807Z"/><path fill="#B64C41" d="M193.636 84.262s16.736 3.039 22.939 9.24c6.204 6.201 20.858 24.514 11.616 85.487 0 0-.75 18.397-21.399 20.145-20.691 1.789-13.156-114.872-13.156-114.872Z"/><path fill="#D9935C" d="M155.168 235.967c2.873 20.019 22.19 72.044 21.607 90.024-.458 14.151-.208 46.906 1.665 68.673.5 5.91 1.124 10.988 1.915 14.692 1.666 8.033 3.789 17.272 4.955 23.099 2.539 13.069 1.207 20.685 3.289 27.719 2.289 7.658 28.601 6.285 20.691 1.623-2.831-1.664-6.953-5.202-8.993-9.739-7.41-16.564 2.956-87.943 6.079-115.454.416-3.454.666-6.159.791-8.032 1.04-16.981 12.697-130.271 12.697-130.271-28.393-15.857-67.527 17.647-64.696 37.666Z"/><path fill="#CB8757" d="M155.168 235.967c2.873 20.02 22.19 72.045 21.607 90.024-.458 14.151-.208 46.906 1.665 68.673l27.894-58.143c.416-3.454.666-6.16.791-8.032 1.041-16.981 12.989-130.313 12.989-130.313-28.31-15.774-67.777 17.772-64.946 37.791Z"/><path fill="#D9935C" d="M216.7 201.88s-24.354 111.875-27.102 128.69c-2.748 16.814-24.938 95.892-20.109 115.703 2.831 11.695 7.827 15.15 7.827 15.15 1.166 2.164-18.068 6.409-19.65-1.79-1.957-10.405-2.373-25.055-5.287-49.819-4.996-42.66 4.912-66.966 7.285-84.78 2.415-17.855-8.035-74.541-2.248-93.895 10.117-33.92 32.723-47.821 59.284-29.259Z"/><path fill="#B64C41" d="M223.237 300.603c-4.288 1.79-9.035 3.08-13.989 4.037h-.041c-4.83.916-9.867 1.499-14.863 1.873-7.036.458-13.947.458-20.108.208l-1.791-20.727-1.873 7.492-3.206 12.861c-2.956-.208-5.62-.458-7.868-.666-4.83-.5-7.785-.958-7.785-.958-5.454-44.949 1.082-73.292 8.493-90.024 2.331-5.285 4.787-9.447 6.91-12.569 1.166-1.665 2.249-3.08 3.206-4.203.791-.916 1.457-1.665 2.04-2.248 1.083-1.124 1.749-1.623 1.749-1.623 2.539.957 4.996 1.79 7.41 2.455 1.749.5 3.414.916 5.079 1.291h.084c1.124.249 2.248.458 3.372.666.416.083.832.124 1.207.208 1.291.208 2.581.374 3.83.541 7.161.832 13.239.624 17.652.166 3.789-.374 6.287-.915 7.119-1.123.209-.042.292-.084.292-.084l.041 1.166.583 19.519 2.457 81.742ZM181.271 465.585H158.29c-1.79-3.247-4.163-12.861-5.953-14.9-.125-.125-.291-.291-.416-.5l-.167 15.4h-2.082c-.041-3.288-.291-14.775-1.415-21.185-1.249-2.33-2.123-4.62-1.707-5.577.791-1.998 8.16-6.451 8.16-6.451s5.454 27.261 8.035 27.927c6.162 1.54 12.323.957 14.072.749.333-.041 3.08 1.207 4.121 2.83.292.541.5 1.083.333 1.707Z"/><path fill="#B64C41" d="M212.079 465.585h-23.022c-1.749-3.205-4.08-12.653-5.871-14.817l-.166 14.817h-2.082c0-.416 0-.999-.041-1.707-.084-4.203-.375-12.569-1.208-18.229-1.582-2.747-2.872-5.702-2.414-6.867.791-1.998 7.993-6.41 7.993-6.41s.042.25.125.624c0 .042 0 .125.042.167 0 .083.041.166.041.25 0 .083.042.124.042.208 1.041 5.285 5.329 25.971 7.952 26.636 7.035 1.749 14.071.75 14.571.708h.041s4.58 2.206 3.997 4.62Z"/><path fill="#E7F0FD" d="M224.485 181.695a201.056 201.056 0 0 1-2.206 10.696c-.042.208-.083.416-.125.583-.916 3.954-1.582 6.201-1.582 6.201-.125.042-.25.083-.333.125-.042.042-.125.042-.167.042a.781.781 0 0 1-.291.083c-1.582.499-3.122.957-4.663 1.332-8.493 2.122-15.987 2.289-22.273 1.581a54.681 54.681 0 0 1-9.076-1.789 17.517 17.517 0 0 1-1.748-.541c-.042 0-.042 0-.084-.042a36.336 36.336 0 0 1-3.871-1.457c-3.497-1.456-5.496-2.788-5.662-2.913.291-.708.541-1.623.749-2.664.416-1.956.666-4.495.791-7.45.25-5.078.167-11.487-.083-18.479 0-.208 0-.416-.042-.624-.375-8.782-.999-18.521-1.707-28.011-.541-7.283-1.041-14.359-1.499-20.726-.124-1.957-.249-3.83-.374-5.619-.583-10.031-.75-17.439.125-19.395 1.374-2.955 5.578-4.745 10.033-5.827.624-.166 1.291-.291 1.915-.416.083 0-.208-.708-.083-.75.624-.124 1.582.459 2.206.375.25-.041.5-.083.791-.125 3.997-.582 7.494-.707 8.327-.749h.208s2.831 1.374 6.869 4.246c.292.208 4.247-2.331 4.58-2.123 4.579 3.371 10.033 9.448 12.573 17.647 3.414 11.154 8.493 16.689 9.533 27.677 1.707 18.022-.499 36.293-2.831 49.112Z"/><path fill="#B64C41" d="M157.208 201.215c8.576 1.748 22.232.874 32.348-2.04 3.372-.957 6.328-2.164 8.576-3.537 9.035-5.578 13.448-46.781 11.866-62.347-1.541-15.566-27.769-47.572-27.769-47.572-6.453 4.786-9.284 15.857-13.114 30.424-9.284 35.086-11.907 85.072-11.907 85.072Z"/><path fill="#AA413E" d="M157.208 201.215c8.576 1.748 22.232.874 32.348-2.04 3.705-5.286 6.703-11.737 8.285-19.603 4.621-22.724-13.572-47.405-28.726-63.387-9.284 35.044-11.907 85.03-11.907 85.03Z"/><path fill="#233862" d="m211.746 166.587-20.15-14.567a5.64 5.64 0 0 0-7.827 1.248l-22.481 31.174a5.636 5.636 0 0 0 1.249 7.824l20.15 14.567a5.64 5.64 0 0 0 7.827-1.248l22.481-31.174c1.79-2.497 1.207-5.993-1.249-7.824Z"/><path fill="#DA935B" d="M193.844 182.194s9.867-.999 11.074.666c1.208 1.665.125 8.074-5.412 8.74-5.537.666-11.865-3.87-11.865-3.87l6.203-5.536Z"/><path fill="#B64C41" d="M182.229 85.72s-17.527 2.08-25.146 17.854-15.778 56.395-13.739 60.224c2.04 3.788 26.603 24.265 46.795 26.887 0 0 4.371-5.536 4.08-10.53 0 0-27.186-16.939-29.517-21.642-2.332-4.662 20.774-43.535 20.483-50.277-.292-6.701-2.956-22.517-2.956-22.517Z"/><path fill="#2B478B" d="M202.004 34.318s10.283 1.249 10.866 13.11c0 0 4.496-18.812-11.782-18.437-16.278.416.916 5.327.916 5.327Z"/><path fill="#FFB27D" d="M205.21 87.342s-.916-9.905-.708-12.486c.125-1.29.25-2.08.25-2.08l-.25-.084-20.566-6.285v.5c-.25 5.577-.583 9.864-.916 13.235-.042.416-.083.874-.125 1.249a58.854 58.854 0 0 1-.583 4.328c3.997 1.748 7.286 2.955 9.992 3.746 7.369 2.164 10.574 1.29 11.948 0 1.083-1.082.958-1.956.958-2.123Z"/><path fill="#E8945B" d="M202.878 72.692v2.164s-11.865.125-19.9 5.286c.333-3.33.666-7.658.916-13.235l18.984 5.785Z"/><path fill="#FFB27D" d="M208.54 74.19s-24.937 4.995-27.81-10.571c-2.873-15.566-8.035-25.43 7.744-29.26 15.82-3.87 19.983 1.5 22.231 6.494 2.248 4.952 4.247 31.63-2.165 33.337Z"/><path fill="#2B478B" d="M200.089 30.905s7.036 8.824-5.828 16.898c-12.865 8.075-11.866 24.223-8.452 28.76 0 0-25.604-24.972-13.738-39.872 11.865-14.859 28.018-5.786 28.018-5.786Z"/><path fill="#699FF0" d="m731.065 130.71-13.405 62.181h52.207l11.657-62.181h-50.459Z"/><path fill="#AFCDFB" d="m732.856 132.666-12.115 56.187h47.169l10.533-56.187h-45.587Z"/><path fill="#699FF0" d="M772.239 137.203h-35.886a1.208 1.208 0 1 0 0 2.415h35.886a1.208 1.208 0 1 0 0-2.415ZM770.408 142.863h-35.887a1.209 1.209 0 0 0 0 2.415h35.887a1.208 1.208 0 0 0 0-2.415ZM769.284 148.274h-35.887a1.209 1.209 0 0 0 0 2.415h35.887a1.209 1.209 0 0 0 0-2.415ZM767.618 159.511h-35.887a1.209 1.209 0 0 0 0 2.415h35.887a1.209 1.209 0 0 0 0-2.415ZM765.787 165.172H729.9c-.666 0-1.208.541-1.208 1.207s.542 1.207 1.208 1.207h35.887a1.208 1.208 0 0 0 0-2.414ZM764.663 170.582h-35.887a1.209 1.209 0 0 0 0 2.415h35.887c.666 0 1.207-.541 1.207-1.207-.042-.667-.583-1.208-1.207-1.208Z"/><path fill="#A53D38" d="m708.814 165.328-7.767 25.741 1.435.433 7.767-25.741-1.435-.433Z"/><path fill="#B64C41" d="M702.089 188.645c-2.664 0-4.871 1.873-5.204 4.287h10.408c-.374-2.455-2.539-4.287-5.204-4.287Z"/><path fill="#B64C41" d="M708.875 192.225c-1.998 0-3.955-.333-4.121-.375l.042-.333c1.998.333 7.285.874 7.868-.791.25-.749 0-1.997-.333-3.704-.624-3.121-1.54-7.866-.458-14.484.874-5.161.208-6.742-.458-7.158-.708-.416-1.707.333-1.707.374l-.208-.249c.042-.042 1.166-.916 2.082-.375 1.124.666 1.332 3.205.624 7.492-1.082 6.534-.166 11.237.458 14.359.333 1.789.625 3.079.291 3.87-.333 1.082-2.206 1.374-4.08 1.374Z"/><path fill="#F1A34F" d="m645.137 226.561 3.08 6.202 6.828.999-4.954 4.827 1.166 6.785-6.12-3.205-6.12 3.205 1.165-6.785-4.954-4.827 6.869-.999 3.04-6.202ZM674.154 226.561l3.081 6.202 6.828.999-4.955 4.827 1.166 6.785-6.12-3.205-6.12 3.205 1.166-6.785-4.954-4.827 6.869-.999 3.039-6.202ZM703.297 226.561l3.081 6.202 6.827.999-4.954 4.827 1.166 6.785-6.12-3.205-6.12 3.205 1.165-6.785-4.954-4.827 6.87-.999 3.039-6.202ZM728.568 226.561l3.08 6.202 6.828.999-4.954 4.827 1.165 6.785-6.119-3.205-6.12 3.205 1.165-6.785-4.954-4.827 6.869-.999 3.04-6.202Z"/></svg>