<svg width="706" height="602" fill="none" xmlns="http://www.w3.org/2000/svg"><path d="M487.518 124.18s9.663-16.9 32.709-15.039c0 0 33.501-28.179 69.219-3.76 0 0 37.976-6.055 66.091 5.224 18.77 7.519 24.947 15.435 24.947 15.435l-192.966-1.86z" fill="#F8FCFF"/><path d="M240.778 214.651s-8.554-40.922-31.917-63.758c-3.089-3.047-8.316-.474-7.841 3.839a.5.5 0 0 0 .04.238c.911 7.321 27.363 36.37 39.718 59.681z" fill="#C5DDFF" opacity=".5"/><path d="M244.381 226.246s-25.66-49.866-63.715-69.574c-2.336-1.188-5.266-.436-6.534 1.82-.831 1.464-1.069 3.72.278 7.005 3.643 8.865 46.568 35.975 69.971 60.749zM553.253 400.025s16.156-38.586 43.4-56.593c3.604-2.375 8.237 1.108 6.97 5.263-.04.079-.04.158-.08.198-2.257 7.084-33.738 30.592-50.29 51.132z" fill="#C5DDFF" opacity=".5"/><path d="M547.511 410.751s34.609-44.088 75.753-56.278c2.495-.752 5.227.554 6.098 3.048.554 1.622.356 3.839-1.624 6.846-5.306 7.995-52.587 26.477-80.227 46.384z" fill="#C5DDFF" opacity=".5"/><path d="M702.303 412.136c-9.543-27.11-55.597-15.039-55.597-15.039s-28.155 50.737-37.262 52.557c-9.148 1.821 15.602-48.045 15.602-48.045-17.978-.396-61.933 24.814-61.933 24.814s7.048 56.238-2.257 55.763c-9.306-.475-3.683-50.104-3.683-50.104-16.909 6.451-31.56 27.822-31.56 27.822-17.741 34.313 27.244 55.328 27.244 55.328s2.019 19.55-8.435 42.9c0 0-2.415 4.354-4.673 11.596l4.713-.356c.277-1.306.633-2.533.99-3.76v-.079c.277-.752.673-1.82 1.148-3.126 1.228-2.929 2.059-5.066 2.574-6.61 3.683-9.181 9.029-21.133 12.988-23.864 0 0-.594-.712-1.188-2.098.357.673.753 1.346 1.188 2.098 9.346 16.701 49.895 16.582 72.031 10.329 22.136-6.253 11.88-11.873-.99-21.252-12.87-9.38-38.015-4.828-45.816-8.311-7.801-3.483 2.851-8.311 17.938-8.272 15.087.04 23.68 14.485 48.034 15 24.393.514 39.48-46.344 39.48-46.344-16.315 6.412-46.964-.593-48.548-6.292-1.584-5.66 42.846-8.351 49.617-10.607 6.772-2.256 17.938-16.938 8.395-44.048zM63.255 190.39c9.187-26.08 53.499-14.445 53.499-14.445s27.085 48.798 35.876 50.579c8.791 1.78-15.008-46.265-15.008-46.265 17.305-.396 59.597 23.904 59.597 23.904s-6.772 54.14 2.177 53.665c8.95-.475 3.564-48.243 3.564-48.243 16.276 6.213 30.373 26.753 30.373 26.753 17.107 33.047-26.215 53.27-26.215 53.27s-1.94 18.799 8.118 41.278c0 0 2.336 4.195 4.514 11.16l-4.554-.316c-.277-1.227-.594-2.454-.99-3.602v-.079c-.277-.712-.633-1.741-1.108-3.008-1.188-2.81-1.98-4.867-2.455-6.371-3.525-8.826-8.712-20.343-12.514-22.955 0 0 .555-.672 1.109-2.018-.356.633-.713 1.306-1.109 2.018-8.989 16.068-48.033 15.989-69.337 9.934-21.305-6.016-11.445-11.437.95-20.461 12.394-9.023 36.589-4.63 44.074-7.994 7.484-3.364-2.772-7.995-17.266-7.955-14.493.04-22.769 13.931-46.251 14.445-23.443.515-37.976-44.602-37.976-44.602 15.721 6.174 45.222-.594 46.727-6.055 1.505-5.462-41.222-8.034-47.756-10.211-6.534-2.216-17.186-16.345-8.039-42.426z" fill="#DFEBF9"/><path d="M573.409 128.81H292.256v472.421h281.153V128.81z" fill="#CDE0FB"/><path d="M596.97 186.829h-23.522v1.068h23.522v-1.068zM596.97 301.797h-23.522v1.069h23.522v-1.069z" fill="#163560"/><path d="M544.502 171.592h-53.855v77.965h53.855v-77.965z" fill="#AFCDFB"/><path d="M515.436 171.592s.594 26.001-24.789 46.146v-46.146h24.789zM520.742 171.592s-.554 26.001 23.72 46.146v-46.146h-23.72z" fill="#D9EAFF"/><path d="M518.921 171.592h-1.347v77.965h1.347v-77.965z" fill="#fff"/><path d="M544.502 194.665h-53.855v1.068h53.855v-1.068zM544.502 222.922h-53.855v1.069h53.855v-1.069z" fill="#fff"/><path d="M545.729 250.784h-56.31v-80.419h56.31v80.419zm-53.854-2.454h51.399v-75.511h-51.399v75.511z" fill="#fff"/><path d="M459.8 171.592h-53.855v77.965H459.8v-77.965z" fill="#AFCDFB"/><path d="M430.734 171.592s.594 26.001-24.789 46.146v-46.146h24.789zM436.04 171.592s-.554 26.001 23.72 46.146v-46.146h-23.72z" fill="#D9EAFF"/><path d="M434.219 171.592h-1.347v77.965h1.347v-77.965z" fill="#fff"/><path d="M459.8 194.665h-53.855v1.068H459.8v-1.068zM459.8 222.922h-53.855v1.069H459.8v-1.069z" fill="#fff"/><path d="M460.988 250.784h-56.31v-80.419h56.31v80.419zm-53.815-2.454h51.399v-75.511h-51.399v75.511z" fill="#fff"/><path d="M375.058 171.592h-53.855v77.965h53.855v-77.965z" fill="#AFCDFB"/><path d="M346.031 171.592s.594 26.001-24.788 46.146v-46.146h24.788zM351.338 171.592s-.555 26.001 23.72 46.146v-46.146h-23.72z" fill="#D9EAFF"/><path d="M349.477 171.592h-1.347v77.965h1.347v-77.965z" fill="#fff"/><path d="M375.058 194.665h-53.855v1.068h53.855v-1.068zM375.058 222.922h-53.855v1.069h53.855v-1.069z" fill="#fff"/><path d="M376.285 250.784h-56.31v-80.419h56.31v80.419zm-53.854-2.454h51.399v-75.511h-51.399v75.511z" fill="#fff"/><path d="M544.502 288.658h-53.855v77.965h53.855v-77.965z" fill="#AFCDFB"/><path d="M515.436 288.658s.594 26.002-24.789 46.146v-46.146h24.789zM520.742 288.658s-.554 26.002 23.72 46.146v-46.146h-23.72z" fill="#D9EAFF"/><path d="M518.921 288.658h-1.347v77.965h1.347v-77.965z" fill="#fff"/><path d="M544.502 311.731h-53.855v1.069h53.855v-1.069zM544.502 339.989h-53.855v1.068h53.855v-1.068z" fill="#fff"/><path d="M545.729 367.85h-56.31v-80.419h56.31v80.419zm-53.854-2.454h51.399v-75.511h-51.399v75.511z" fill="#fff"/><path d="M459.8 288.658h-53.855v77.965H459.8v-77.965z" fill="#AFCDFB"/><path d="M430.734 288.658s.594 26.002-24.789 46.146v-46.146h24.789zM436.04 288.658s-.554 26.002 23.72 46.146v-46.146h-23.72z" fill="#D9EAFF"/><path d="M434.219 288.658h-1.347v77.965h1.347v-77.965z" fill="#fff"/><path d="M459.8 311.731h-53.855v1.069H459.8v-1.069zM459.8 339.989h-53.855v1.068H459.8v-1.068z" fill="#fff"/><path d="M460.988 367.85h-56.31v-80.419h56.31v80.419zm-53.815-2.454h51.399v-75.511h-51.399v75.511z" fill="#fff"/><path d="M375.058 288.658h-53.855v77.965h53.855v-77.965z" fill="#AFCDFB"/><path d="M346.031 288.658s.594 26.002-24.788 46.146v-46.146h24.788zM351.338 288.658s-.555 26.002 23.72 46.146v-46.146h-23.72z" fill="#D9EAFF"/><path d="M349.477 288.658h-1.347v77.965h1.347v-77.965z" fill="#fff"/><path d="M375.058 311.731h-53.855v1.069h53.855v-1.069zM375.058 339.989h-53.855v1.068h53.855v-1.068z" fill="#fff"/><path d="M376.285 367.85h-56.31v-80.419h56.31v80.419zm-53.854-2.454h51.399v-75.511h-51.399v75.511z" fill="#fff"/><path d="M459.8 405.724h-53.855v77.965H459.8v-77.965z" fill="#AFCDFB"/><path d="M430.734 405.724s.594 26.002-24.789 46.146v-46.146h24.789zM436.04 405.724s-.554 26.002 23.72 46.146v-46.146h-23.72z" fill="#D9EAFF"/><path d="M434.219 405.724h-1.347v77.965h1.347v-77.965z" fill="#fff"/><path d="M459.8 428.797h-53.855v1.069H459.8v-1.069zM459.8 457.055h-53.855v1.068H459.8v-1.068z" fill="#fff"/><path d="M460.988 484.877h-56.31v-80.419h56.31v80.419zm-53.815-2.414h51.399v-75.512h-51.399v75.512z" fill="#fff"/><path d="M375.058 405.724h-53.855v77.965h53.855v-77.965z" fill="#AFCDFB"/><path d="M346.031 405.724s.594 26.002-24.788 46.146v-46.146h24.788zM351.338 405.724s-.555 26.002 23.72 46.146v-46.146h-23.72z" fill="#D9EAFF"/><path d="M349.477 405.724h-1.347v77.965h1.347v-77.965z" fill="#fff"/><path d="M375.058 428.797h-53.855v1.069h53.855v-1.069zM375.058 457.055h-53.855v1.068h53.855v-1.068z" fill="#fff"/><path d="M376.285 484.877h-56.31v-80.419h56.31v80.419zm-53.854-2.414h51.399v-75.512h-51.399v75.512z" fill="#fff"/><path d="M578.042 536.603H289.128v64.588h288.914v-64.588z" fill="#AFCDFB"/><path d="m383.294 223.476-.119 354.009c0 11.636-9.424 21.055-21.066 21.055l-185.165-.079c-11.642 0-21.067-9.42-21.067-21.055l.119-354.009c0-11.635 9.425-21.054 21.067-21.054l185.164.079c11.642 0 21.067 9.419 21.067 21.054z" fill="#739AF0"/><path d="m362.109 601.191-185.165-.079c-13.068 0-23.72-10.646-23.72-23.706l.119-354.009c0-13.06 10.652-23.706 23.72-23.706l185.164.079c13.068 0 23.72 10.646 23.72 23.706l-.119 354.009c-.039 13.06-10.652 23.706-23.719 23.706zM177.063 204.994c-10.177 0-18.414 8.272-18.414 18.403l-.119 354.009c0 10.171 8.277 18.403 18.414 18.403l185.165.079c10.177 0 18.413-8.271 18.413-18.403l.119-354.009c0-10.171-8.276-18.403-18.414-18.403l-185.164-.079z" fill="#163560"/><path d="M363.217 428.323V559.32c0 8.707-7.048 15.751-15.76 15.751H194.961c-8.672 0-15.72-7.044-15.72-15.751V428.323c0-8.707 7.048-15.752 15.72-15.752h152.496c1.148 0 2.257.119 3.326.356 7.128 1.544 12.434 7.837 12.434 15.396zM352.526 399.392H189.972c-5.9 0-10.692-4.788-10.692-10.685v-53.626c0-5.897 4.792-10.686 10.692-10.686h162.554c5.9 0 10.691 4.789 10.691 10.686v53.626c0 5.897-4.791 10.685-10.691 10.685z" fill="#EBF2FF"/><path d="M289.643 353.76h-44.391a.98.98 0 0 1-.99-.989.98.98 0 0 1 .99-.989h44.391a.98.98 0 0 1 .99.989.98.98 0 0 1-.99.989zM319.342 360.923h-74.09a.98.98 0 0 1-.99-.989.98.98 0 0 1 .99-.989h74.09a.98.98 0 0 1 .99.989.98.98 0 0 1-.99.989z" fill="#2B478B"/><path d="M234.442 342.442h-42.45v42.426h42.45v-42.426z" fill="#C2CFFF"/><path d="m199.872 373.747 9.266-16.701 6.811 9.3 3.406-3.72 7.246 11.121h-26.729zM213.573 354.632a2.425 2.425 0 0 1 2.415-2.415 2.425 2.425 0 0 1 2.416 2.415 2.4 2.4 0 0 1-2.416 2.414 2.4 2.4 0 0 1-2.415-2.414z" fill="#AABDF2"/><path d="M317.956 346.796h-72.823a.98.98 0 0 1-.99-.99v-2.374a.98.98 0 0 1 .99-.99h72.823a.98.98 0 0 1 .99.99v2.374a.98.98 0 0 1-.99.99z" fill="#2B478B"/><path d="m254.993 372.995 6.137.871-4.434 4.313 1.069 6.095-5.504-2.889-5.465 2.889 1.069-6.095-4.434-4.274 6.097-.91 2.733-5.541 2.732 5.541zM276.178 372.995l6.098.871-4.395 4.313 1.029 6.095-5.464-2.889-5.464 2.889 1.029-6.095-4.395-4.274 6.098-.91 2.732-5.541 2.732 5.541zM297.364 372.995l6.098.871-4.396 4.313 1.03 6.095-5.465-2.889-5.464 2.889 1.03-6.095-4.435-4.274 6.137-.91 2.732-5.541 2.733 5.541zM318.549 372.995l6.098.871-4.435 4.313 1.069 6.095-5.464-2.889-5.465 2.889 1.03-6.095-4.435-4.274 6.138-.91 2.692-5.541 2.772 5.541zM339.695 372.995l6.138.871-4.435 4.313 1.069 6.095-5.465-2.889-5.464 2.889 1.03-6.095-4.435-4.274 6.098-.91 2.732-5.541 2.732 5.541z" fill="#A7D91A"/><path d="M352.526 312.483H189.972c-5.9 0-10.692-4.789-10.692-10.686v-53.665c0-5.897 4.792-10.685 10.692-10.685h162.554c5.9 0 10.691 4.788 10.691 10.685v53.626c0 5.936-4.791 10.725-10.691 10.725z" fill="#EBF2FF"/><path d="M289.643 266.851h-44.391a.98.98 0 0 1-.99-.989.98.98 0 0 1 .99-.989h44.391a.98.98 0 0 1 .99.989c0 .514-.436.989-.99.989zM319.342 274.014h-74.09a.98.98 0 0 1-.99-.989.98.98 0 0 1 .99-.989h74.09a.98.98 0 0 1 .99.989.98.98 0 0 1-.99.989z" fill="#2B478B"/><path d="M234.442 255.533h-42.45v42.426h42.45v-42.426z" fill="#C2CFFF"/><path d="m199.872 286.838 9.266-16.702 6.811 9.261 3.406-3.72 7.246 11.161h-26.729zM213.573 267.722a2.424 2.424 0 0 1 2.415-2.414 2.425 2.425 0 0 1 2.416 2.414 2.424 2.424 0 0 1-2.416 2.414 2.399 2.399 0 0 1-2.415-2.414z" fill="#AABDF2"/><path d="M317.956 259.847h-72.823a.98.98 0 0 1-.99-.99v-2.374a.98.98 0 0 1 .99-.99h72.823a.98.98 0 0 1 .99.99v2.374a.98.98 0 0 1-.99.99z" fill="#2B478B"/><path d="m254.993 286.046 6.137.91-4.434 4.314 1.069 6.055-5.504-2.849-5.465 2.889 1.069-6.095-4.434-4.314 6.097-.87 2.733-5.541 2.732 5.501zM276.178 286.046l6.098.91-4.395 4.314 1.029 6.055-5.464-2.849-5.464 2.889 1.029-6.095-4.395-4.314 6.098-.87 2.732-5.541 2.732 5.501zM297.364 286.046l6.098.91-4.396 4.314 1.03 6.055-5.465-2.849-5.464 2.889 1.03-6.095-4.435-4.314 6.137-.87 2.732-5.541 2.733 5.501zM318.549 286.046l6.098.91-4.435 4.314 1.069 6.055-5.464-2.849-5.465 2.889 1.03-6.095-4.435-4.314 6.138-.87 2.692-5.541 2.772 5.501zM339.695 286.046l6.138.91-4.435 4.314 1.069 6.055-5.465-2.849-5.464 2.889 1.03-6.095-4.435-4.314 6.098-.87 2.732-5.541 2.732 5.501z" fill="#A7D91A"/><g opacity=".3" fill="#739AF0"><path d="M248.024 462.556a28.81 28.81 0 0 0-3.682-.238h-.594c-15.048.317-27.165 12.625-27.165 27.743 0 1.465.119 2.889.317 4.314 2.059 13.1 13.226 23.152 26.808 23.429h.594c1.267 0 2.495-.079 3.683-.237 12.157-1.623 21.858-11.121 23.759-23.192a31.16 31.16 0 0 0 .317-4.314c.039-14.089-10.454-25.724-24.037-27.505zm0 45.829a18.7 18.7 0 0 1-3.682.356h-.594c-8.593-.277-15.682-6.332-17.582-14.366-.317-1.385-.515-2.81-.515-4.314 0-10.131 8.038-18.363 18.097-18.68h.594c1.267 0 2.494.119 3.682.357 8.554 1.701 15.008 9.26 15.008 18.323 0 1.465-.158 2.929-.515 4.314-1.663 7.045-7.325 12.585-14.493 14.01z"/><path d="M225.611 490.061c0 1.465.159 2.929.515 4.314h-34.412v-4.314h33.897zM350.823 490.061v4.314h-88.266c.317-1.385.515-2.81.515-4.314h87.751zM248.024 418.508v53.23a18.71 18.71 0 0 0-3.683-.357h-.594v-52.873h4.277zM248.024 508.385v57.504h-4.316v-57.148h.594c1.307 0 2.534-.118 3.722-.356z"/><path d="M346.507 418.508v78.519h4.316V418.864l-4.316-.356zM302.116 418.508H297.8v147.381h4.316V418.508zM275.031 423.969h-21.344v33.125h21.344v-33.125zM212.464 448.902h-20.789v23.785h20.789v-23.785zM233.531 423.969h-41.856v20.778h41.856v-20.778zM293.562 423.969h-14.928v20.58h14.928v-20.58zM293.562 448.902h-14.928v34.392h14.928v-34.392zM293.562 498.451h-14.928v20.382h14.928v-20.382zM323.737 423.969h-12.038v59.325h12.038v-59.325zM342.586 423.969h-14.928v59.325h14.928v-59.325zM350.823 500.628h-41.381v65.301h41.381v-65.301zM293.523 541.194H252.34v24.695h41.183v-24.695zM293.523 523.464H252.34v13.099h41.183v-13.099zM228.66 523.464h-36.985v42.425h36.985v-42.425zM207.236 496.671h-15.561v22.875h15.561v-22.875z"/></g><path d="M103.25 583.897h-6.97v9.498h6.97v-9.498zM142.651 583.897h-6.969v9.498h6.969v-9.498z" fill="#163560"/><path d="M94.816 594.819a4.95 4.95 0 0 1 9.899 0 4.95 4.95 0 0 1-9.9 0z" fill="#1F4777"/><path d="M96.756 594.82a3.007 3.007 0 0 1 3.01-3.008 3.007 3.007 0 1 1 0 6.015 3.007 3.007 0 0 1-3.01-3.007z" fill="#163560"/><path d="M134.216 594.819a4.951 4.951 0 0 1 9.9 0 4.95 4.95 0 0 1-9.9 0z" fill="#1F4777"/><path d="M136.157 594.82a3.007 3.007 0 0 1 3.009-3.008 3.007 3.007 0 1 1 0 6.015 3.006 3.006 0 0 1-3.009-3.007z" fill="#163560"/><path d="M155.877 589.2h-72.11c-6.93 0-12.513-5.62-12.513-12.506v-1.623h96.186v2.572c.04 6.372-5.148 11.557-11.563 11.557z" fill="#323232"/><path d="M170.766 456.303v114.731c0 1.385-.158 2.731-.435 4.037h-13.464c-2.098 0-4.039.594-5.662 1.662-1.03.633-1.901 1.465-2.654 2.414a10.545 10.545 0 0 0-2.217 6.491v3.562H93.549v-3.562c0-3.681-1.901-6.926-4.752-8.826a11.75 11.75 0 0 0-2.653-1.266 10.39 10.39 0 0 0-3.168-.475H68.403a19.398 19.398 0 0 1-.435-4.037V456.303c0-10.052 8.117-18.166 18.175-18.166h66.448c10.058 0 18.175 8.114 18.175 18.166z" fill="#F76748"/><path d="M138.731 438.058c-12.434-4.907-22.809-4.67-29.303-3.601-7.049 1.148-11.207 3.522-11.286 3.522l-.871-1.504c.158-.118 4.435-2.493 11.761-3.72 6.731-1.108 17.463-1.385 30.332 3.681l-.633 1.622zM88.796 438.137v138.675a11.754 11.754 0 0 0-2.653-1.266V438.137h2.653zM109.982 438.137h-2.653v151.102h2.653V438.137zM129.781 438.137h-2.653v151.102h2.653V438.137zM151.165 438.137v138.596c-1.03.633-1.901 1.465-2.653 2.414v-141.01h2.653z" fill="#163560"/><path d="M10.55 378.734c0-.198 2.89-6.174 1.98-6.649-.912-.475-2.575-.396-2.773.673-.198 1.029.792 5.976.792 5.976z" fill="#FFB27D"/><path d="M11.618 382.295c0-.593-.673-9.537-2.178-11.358-1.505-1.781-4.593-4.314-5.583-4.235-.99.08-4.791 5.145-3.643 8.984 1.148 3.879 5.98 9.103 5.98 9.103l5.424-2.494z" fill="#FFB27D"/><path d="m17.399 371.412-8.83 2.652c-.277.079-.594-.08-.673-.357l-5.03-16.78c-.078-.277.08-.594.357-.673l8.83-2.651c.278-.079.594.079.673.356l5.03 16.78c.118.277-.04.594-.357.673z" fill="#FF896F"/><path d="m15.102 372.124-7.998 2.415c-.515.158-1.07-.159-1.228-.673l-4.79-15.989c-.16-.515.157-1.069.672-1.227l7.999-2.414c.515-.158 1.069.158 1.227.673l4.792 15.989c.158.514-.159 1.068-.674 1.226z" fill="#F76748"/><path d="M2.946 367.375s3.683-5.659 4.554-5.343c1.267.436-3.326 7.599-3.326 7.599s3.405-5.343 3.96-4.947c1.227.91-.713 4.274-2.654 6.847 0 0 3.445-3.127 3.564-2.573.396 1.979-3.762 6.768-3.762 6.768l-2.336-5.303v-3.048z" fill="#FFB27D"/><path d="M.214 372.599c.158-.673 1.069-14.168 1.465-12.902.396 1.267 1.307 8.351 1.307 8.351l-2.772 4.551z" fill="#FFB27D"/><path d="M58.78 368.879s-.395 14.643-4.593 26.477c-3.326 9.34-9.068 16.899-18.928 14.128-.99-.277-1.98-.593-2.93-.91-19.998-6.965-26.452-22.915-26.452-22.915 1.504-2.453 5.82-3.364 5.82-3.364 4.04.198 21.74 7.718 22.85 7.955 4.078.831 7.404-21.648 10.057-29.444 2.654-7.797 13.543-11.28 13.543-11.28l.634 19.353z" fill="#739AF0"/><path d="m54.544 384.789-.396 10.567c-3.327 9.34-9.068 16.899-18.929 14.128-.99-.277-1.98-.593-2.93-.91.317.04 6.336.871 8.87-1.662 2.574-2.612 2.337-11.2 7.089-16.899 4.791-5.739 6.296-5.224 6.296-5.224z" fill="#5283DB"/><path d="M55.098 577.92s4.91 4.473 3.96 7.678c-.95 3.206-5.386 5.303-6.02 9.221-.593 3.919-3.009 6.016-5.147 6.016H37.595s-1.584-2.731 2.257-3.562c3.842-.831 5.307-5.422 5.07-9.656-.238-4.235.356-9.934.356-9.934l8.157-1.9 1.663 2.137zM.887 600.004H31.22c1.188 0 2.178-.95 2.218-2.137.04-1.781-.12-4.353-1.07-6.53-1.623-3.602-2.653-4.235 4.198-14.643-2.06 2.097-7.603 1.147-12.276.514-.554.91-9.266 14.327-11.167 15.712-2.178 1.504-11.602.95-12.236 7.084z" fill="#0B2442"/><path d="M48.129 431.884S26.15 473.36 20.172 496.196c-4.633 17.73 23.68 86.315 23.68 86.315s2.297-.158 6.098-1.622c3.723-1.465 5.109-5.343 5.109-5.343s-1.664-49.035-7.405-72.781c-1.268-5.342 6.217-22.518 18.928-31.898 12.672-9.419 17.978-39.695 10.414-41.713-7.563-2.019-28.867 2.73-28.867 2.73z" fill="#163560"/><path d="M66.978 420.13s-23.126 84.693-30.135 103.729c-7.009 19.037-18.136 59.404-18.136 59.404s7.048 3.285 16.037 1.742c0 0 33.818-49.51 35.283-71.356.673-10.132 34.689-50.183 30.887-76.343L66.978 420.13z" fill="#1C468A"/><path d="M100.835 446.567s-4.91 2.493-13.622 3.206c-9.94.831-24.868-.633-43.044-10.725 0 0-5.069-4.156 1.148-21.926 4.712-13.416 7.01-41.752 12.751-67.556 0 0 18.651-5.857 33.62-.792 11.444 3.879 10.295 21.411 12.394 39.656.198 1.701.436 3.403.673 5.105 3.208 19.986-3.92 53.032-3.92 53.032z" fill="#739AF0"/><path d="M51.534 311.335s12.751-20.698 22.611-10.052c0 0 6.455 1.662 10.138 11.675 3.761 10.25-2.1 19.274-6.02 17.809-2.494-.95-3.682 3.404-3.682 3.404l-23.047-22.836z" fill="#233862"/><path d="M72.165 299.621s.871-8.588 13.423-7.757c0 0-5.939.119-7.206 2.572 0 0 4.316-2.77 7.444-1.424 3.128 1.345 4.475 7.242 4.316 9.102-.158 1.86-2.574 7.717-4.712 8.034-2.099.317-4.87-1.187-4.87-1.187l-8.395-9.34z" fill="#233862"/><path d="M78.5 348.22c-1.188-3.126-2.93-6.411-4.355-16.463l-.753.277-12.67 4.472s.87 4.037 1.464 7.915c.238 1.583.396 4.393.515 6.847.119 2.533 2.574 2.77 5.108 2.651 6.692-.356 10.374-2.849 10.691-5.699z" fill="#FFB27D"/><path d="M60.721 336.466s.871 4.037 1.465 7.915c7.247-1.266 10.137-8.469 11.206-12.387l-12.67 4.472z" fill="#E8945B"/><path d="M74.541 330.411s2.97-6.57 3.129-11.873c.118-3.76-3.723-17.176-17.187-13.218 0 0-3.92.949-7.325 4.036-2.693 2.454-6.376 7.401.158 18.641l1.822 3.839 19.403-1.425z" fill="#233862"/><path d="M58.82 340.503s17.305-2.216 15.76-12.941c-1.544-10.726-.356-18.245-11.443-17.295-11.088.95-12.672 5.343-13.028 9.063-.357 3.68 4.197 21.45 8.711 21.173z" fill="#FFB27D"/><path d="M55.257 311.098s6.533 11.912 14.057 12.743c7.524.831 10.375-1.583 10.375-1.583s-6.177-3.601-8.474-11.16c0 0-13.266-6.491-15.959 0z" fill="#233862"/><path d="M56.563 311.969s-3.128 3.324-3.604 6.173c-.475 2.85-.04 8.549-1.702 8.588 0 0-4.791-8.034-1.505-13.456 3.524-5.778 6.81-1.305 6.81-1.305z" fill="#233862"/><path d="M55.97 312.483s5.266 12.704 15.007 15.633c0 0-10.296-6.808-12.355-15.396-2.059-8.588-2.653-.237-2.653-.237z" fill="#233862"/><path d="M100.835 446.567s-4.91 2.493-13.622 3.206c0 0-7.128-8.944.831-18.997 7.96-10.052-.633-28.534 5.505-38.626 4.276-7.005 8.434-5.383 10.573-3.72.198 1.701.435 3.403.673 5.105 3.168 19.986-3.96 53.032-3.96 53.032z" fill="#5283DB"/><path d="M132.237 431.647s1.069 2.454 2.534 2.612c2.415.277 7.009 2.295 7.761 2.731 1.94 1.147 1.821 6.372-.119 6.846-1.94.475-2.93-3.878-9.068-5.026-2.059-.395-5.108 1.029-6.335-3.918l5.227-3.245z" fill="#FFB27D"/><path d="M91.727 348.735c17.82 6.53 18.453 38.072 26.413 51.963 8.197 14.327 16.156 33.165 16.156 33.165s-.158.554-3.208 1.425c-2.138.633-4.395.356-4.395.356s-16.83-15.197-21.383-21.213c-4.554-6.015-15.365-33.837-15.365-33.837s-5.306-34.471 1.782-31.859z" fill="#739AF0"/><path d="M127.406 436.119s.435 2.137 3.049 3.839c2.613 1.702 4.712 3.443 4.989 2.375.237-1.069-1.465-2.217-1.861-4.156-.396-1.979-6.177-2.058-6.177-2.058z" fill="#FFB27D"/><path d="M583.981 145.313H283.148l16.038-71.237h268.758l16.037 71.237z" fill="#F76748"/><path d="M365.434 95.21h-27.6v27.584h27.6V95.21z" fill="#BDD1F9"/><path d="M336.567 93.943v30.118h30.135V93.943h-30.135zm27.561 27.585h-25.027V96.516h25.027v25.012z" fill="#163560"/><path d="M352.875 122.812V95.227h-2.494v27.585h2.494zM371.018 88.798h-39.955v5.778h39.955v-5.778z" fill="#163560"/><path d="M447.563 95.21h-27.601v27.584h27.601V95.21z" fill="#BDD1F9"/><path d="M418.656 93.943v30.118h30.134V93.943h-30.134zm27.6 27.585H421.23V96.516h25.026v25.012z" fill="#163560"/><path d="M434.993 122.822V95.237h-2.494v27.585h2.494zM452.829 88.798h-39.955v5.778h39.955v-5.778z" fill="#163560"/><path d="M529.374 95.21h-27.6v27.584h27.6V95.21z" fill="#BDD1F9"/><path d="M500.467 93.943v30.118h30.135V93.943h-30.135zm27.6 27.585h-25.026V96.516h25.026v25.012z" fill="#163560"/><path d="M516.808 122.818V95.233h-2.494v27.585h2.494zM534.641 88.798h-39.955v5.778h39.955v-5.778z" fill="#163560"/><path d="M395.711 601.148h39.282c2.099-1.781-1.465-5.857-5.187-6.095-1.624-.119-3.643.198-5.98.712-.554-7.163-3.643-39.457-15.285-38.151-13.068 1.464 0 14.208 3.683 21.767 2.732 5.58 5.623 13.614 6.969 17.414a81.481 81.481 0 0 1-3.286.672c-1.743-5.303-8.197-23.231-16.394-22.202-9.623 1.227-5.782 8.39 1.069 12.664 5.029 3.127 11.167 7.599 14.097 9.736-2.495.396-5.069.673-7.682.633-6.732-.198-10.019 1.781-11.286 2.85zM613.836 602h-29.62c-1.584-1.346 1.109-4.393 3.921-4.591 1.227-.079 2.772.159 4.514.554.396-5.422 2.732-29.721 11.484-28.732 9.86 1.108 0 10.725-2.772 16.385-2.059 4.234-4.237 10.25-5.227 13.099.792.159 1.623.356 2.494.515 1.307-3.998 6.178-17.493 12.355-16.701 7.247.91 4.356 6.332-.792 9.537-3.762 2.375-8.395 5.699-10.612 7.322 1.861.317 3.801.515 5.781.475 5.029-.158 7.524 1.345 8.474 2.137z" fill="#A8D29F"/><path d="M436.832 344.263c1.385 3.72 3.801 8.073 6.335 9.142 2.851 1.227 4.079 2.968 4.079 2.968l2.296-1.346 2.772-1.622-.198-.792c-.119-.514-.356-1.187-.634-1.979 0 0-.831-1.108-.316-2.453.514-1.385.396-3.483-.476-4.789-.871-1.306-1.742-4.472-2.257-4.353-1.306.237.634 4.59.08 5.382-.515.712-1.109.475-1.228.435h-.039c-3.643-1.583-8.039-10.171-9.979-9.023-.713.435-.99 6.847-.435 8.43z" fill="#FF9C7D"/><path d="m449.383 349.447-4.553 3.206a.704.704 0 0 1-.99-.158l-11.642-16.543c-.237-.317-.158-.752.159-.99l4.553-3.205a.703.703 0 0 1 .99.158l11.642 16.543c.237.316.198.791-.159.989z" fill="#2B478B"/><path d="m445.226 352.376-2.653 1.86c-.238.158-.594.119-.753-.119l-11.839-16.82c-.159-.237-.119-.593.119-.752l2.653-1.86c.237-.158.594-.118.752.119l11.839 16.82c.198.237.159.594-.118.752zM514.604 325.701s-23.126 40.329-31.521 47.729l-30.768-22.914s-4.475 1.385-6.415 5.857c0 0 23.64 38.072 37.064 39.655 18.335 2.137 44.193-45.591 44.193-45.591l-12.553-24.736z" fill="#233862"/><path d="M557.806 600.558h13.345c1.663-.91 3.168-3.008 3.643-6.134.634-4.314 5.465-6.649 6.534-10.171 1.03-3.523-4.316-8.47-4.316-8.47l-.911-1.147-.911-1.188-8.87 2.098s-.238 2.097-.356 4.789c-.08 1.939-.159 4.195-.04 6.134.277 4.71-1.307 9.736-5.465 10.646-3.088.712-2.93 2.533-2.653 3.443zM489.379 599.885h30.571c1.465-1.781.91-8.39.712-10.567-.039-.435-.079-.672-.079-.672s-10.414-8.351-11.88-1.94a3.265 3.265 0 0 1-.158.594c-1.822 5.976-9.9 8.707-14.572 9.459-3.05.435-4.158 2.018-4.594 3.126z" fill="#2D4C7F"/><path d="M495.2 429.431s1.584 19.748 3.445 43.494c2.535 32.254 5.584 71.87 5.861 79.39.515 13.02 2.614 33.877 2.614 33.877s4.949 4.947 14.849 2.849c0 0 8.831-29.761 11.365-61.264l.119-1.543c2.336-32.057 5.979-99.574 5.979-99.574l-44.232 2.771z" fill="#F76748"/><path d="M495.2 429.431s1.584 19.748 3.445 43.494l34.689 54.892.119-1.543c2.336-32.057 5.979-99.574 5.979-99.574l-44.232 2.731z" fill="#F76748"/><path d="M502.962 426.185s23.957 73.018 40.47 107.608c16.513 34.59 21.74 44.286 21.74 44.286s10.77-3.72 11.879-6.57c0 0-5.702-60.71-17.146-77.213-6.455-9.3-10.811-41.041-10.652-50.42.158-9.38-.911-28.06-.911-28.06l-45.38 10.369z" fill="#F76748"/><path d="M509.535 327.443c11.167 3.522 30.452-5.976 30.452-5.976s-10.296-7.718-9.742-23.746l-8.632 6.966-5.861 4.709s.04 2.77.673 7.678v.039a6.916 6.916 0 0 1-2.613 6.372c-2.733 2.019-4.277 3.958-4.277 3.958z" fill="#FFB27D"/><path d="M515.792 309.396s.039 2.77.673 7.678c6.494-1.108 13.859-11.596 13.859-11.596-3.326-.95-6.217-1.108-8.672-.791l-5.86 4.709z" fill="#E8945B"/><path d="M512.347 309.119s18.413 3.047 20.156-8.43c1.742-11.516 5.266-18.838-6.415-21.292-11.682-2.453-14.652 1.623-16.157 5.304-1.504 3.68-2.296 23.31 2.416 24.418z" fill="#FFB27D"/><path d="M493.973 431.053c.317.277.713.436 1.188.436 4.197-.04 16.394 2.255 26.769 1.226 8.711-.831 16.433-3.403 24.709-7.123 1.109-.475 3.644-1.86 3.564-3.087-.039-1.346-.158-3.285-.356-5.739-.594-8.548-1.624-23.231-.594-40.209.198-3.166.277-6.293.277-9.38.079-22.993-4.475-43.217-13.622-50.064-.792-.554-5.583 1.781-10.018 3.958-4.079 2.018-7.208 2.216-11.088 1.425l-4.792 3.443c-4.712 4.353-9.82 10.29-12.077 19.274-1.901 7.638-3.01 21.45-3.643 35.737-.278 6.49-.515 13.02-.555 19.194v.238c-.039.633-.039 1.266-.039 1.899-.238 15.95 0 28.535.277 28.772z" fill="#2B478B"/><path d="M549.846 416.766c-.594-8.548-1.623-23.231-.594-40.209.198-3.166.277-6.293.277-9.38-3.801-9.26-6.929-15.949-6.929-15.949h-9.622c0-.039-7.048 48.125 16.868 65.538z" fill="#233862"/><path d="M532.542 299.581s-1.9-.316-1.584-2.928c.317-2.613.317-6.016-1.821-5.383-2.099.633-2.218 2.335-3.089 1.346-.871-.99-.871-5.145-7.207-5.462-6.296-.277-8.87 1.9-11.8.633-2.931-1.306-3.089-5.738-3.089-5.738s.831 1.583 2.099 2.097c0 0-4.871-6.688.752-11.279 5.663-4.591 11.444-1.583 14.731-1.385 7.207.435 11.879.871 14.255 5.62 2.376 4.749 1.386 17.928-3.247 22.479z" fill="#2B478B"/><path d="M672.92 591.851c-.554 3.562 2.099 7.718 5.98 9.221 3.88 1.504 7.483-.158 8.077-3.72.555-3.562-2.098-7.717-5.979-9.221-3.88-1.543-7.484.119-8.078 3.72zM623.659 591.93c-.554 3.562 2.099 7.718 5.979 9.222 3.881 1.503 7.484-.159 8.078-3.721.555-3.561-2.098-7.717-5.979-9.221-3.88-1.504-7.523.158-8.078 3.72z" fill="#1C468A"/><path d="m686.899 590.941-8.831 3.601c-.91.357-1.9.554-2.93.554l-55.557-.474-8.712-10.29 76.03 6.609z" fill="#739AF0"/><path d="m629.995 471.935-21.264-31.106-.04-.08c-.119-.277-3.524-6.925-21.502-8.746h-.079l-14.811-2.018c-1.9-.356-7.444-.99-9.899.316-1.109.554-1.505 1.465-1.267 2.771.475 2.572 14.612 22.756 23.997 35.697l-2.772.713c-2.416-3.325-23.562-32.571-24.235-36.292-.356-1.939.396-3.443 2.257-4.393 4.039-2.097 11.761-.791 12.593-.633l14.612 1.979c19.364 1.939 23.64 9.3 24.076 10.132l21.185 31.027-2.851.633z" fill="#1C468A"/><path d="m593.564 465.762-28.353 6.173s-7.801 3.642-2.02 19.314c5.069 13.772 31.6 91.144 31.6 91.144s5.544 16.107 37.857 11.358l-39.084-127.989z" fill="#739AF0"/><path d="m582.437 487.093 30.293 86.632c1.228 3.523 3.247 6.728 5.821 9.42 4.752 4.986 11.246 8.231 17.622 8.271l27.798.119h.673l17.384.079c1.743 0 3.366-.238 4.871-.673.356-.119.673-.198 1.029-.356 5.505-2.058 8.831-7.084 8.95-13.258.039-2.612-.475-5.462-1.663-8.351l-33.897-82.872c-3.603-8.826-12.394-15.593-21.265-16.424l-5.029-.475-1.188-.119-.99-.079-16.79-1.583-2.059-.198-16.196-1.504c-2.534-.237-4.87.04-6.929.673-.119.039-.278.079-.396.119l-.832.316c-7.088 3.008-10.415 11.081-7.207 20.263z" fill="#83B0FF"/><path d="M618.551 583.145c4.752 4.986 11.246 8.231 17.622 8.271l27.798.119h.673l17.384.079c1.743 0 3.366-.238 4.871-.673.356-.119.673-.198 1.029-.356 5.505-2.058 10.494-9.538 8.554-17.453 0 0-58.884-.673-70.645 1.306-6.058 1.029-6.771 5.58-7.286 8.707z" fill="#739AF0" opacity=".5"/><path d="M632.847 468.967c.158.079 15.087 8.074 18.572 15.158 3.603 7.242 36.945 91.856 37.262 92.687.04.079 2.455 8.232-2.613 14.366l.831-.237c.357-.119.673-.198 1.03-.356 4.593-6.332 1.861-13.614 1.742-13.931-1.386-3.483-33.699-85.485-37.342-92.806-3.168-6.412-13.899-12.783-17.304-14.683l-1.188-.119-.99-.079zM613.958 467.226c2.178 1.266 10.652 6.767 14.77 16.938 4.831 11.913 33.976 98.506 34.253 99.376l.04.079.04.04c.039.04 2.217 4.71.198 7.915H664.645c1.861-3.403-.317-7.598-.634-8.152-.911-2.692-29.501-87.543-34.293-99.376-3.564-8.747-10.216-14.208-13.701-16.583l-2.059-.237zM589.604 466.83c.08.04 3.129 1.583 6.138 4.235 3.01 2.691 6.574 6.807 8.91 12.625 4.831 11.912 32.471 98.188 32.748 99.059l.04.079.039.079c.04.04 1.624 5.343-.396 8.509h1.743c1.425-2.889-.04-8.153-.396-8.786-.871-2.77-27.957-87.265-32.749-99.099-4.514-11.121-13.028-16.186-14.809-17.176-.119.04-.278.079-.396.119l-.872.356z" fill="#739AF0"/><path d="M569.409 413.125s1.227 8.826 1.306 9.973c.594 7.757-.514 8.509 3.723 9.894 1.188.396 4.355.396 6.177-1.86 0 0-2.97-.197-2.455-4.472.594-4.907.277-3.522-2.693-7.519l-.713-7.361-5.345 1.345z" fill="#FF9C7D"/><path d="M573.408 420.605c-3.484.673-7.207.396-7.207.396s-10.295-31.74-11.602-34.669c-1.307-2.889-30.57-37.241-30.57-37.241l12.196-30.474s31.6 52.795 34.847 60.196c5.306 12.268 7.128 39.734 7.128 39.734s-2.059 1.544-4.792 2.058z" fill="#2B478B"/><path d="M570.716 423.098s-.753 1.94-.792 2.85c-.08 2.929-.911 4.274-.396 4.512 1.069.514 2.138-1.742 2.574-3.721.435-1.978-1.386-3.641-1.386-3.641z" fill="#FF9C7D"/><path d="M355.06 226.801a2.383 2.383 0 0 0-2.376-2.375 2.383 2.383 0 0 0-2.376 2.375 2.382 2.382 0 0 0 2.376 2.374 2.357 2.357 0 0 0 2.376-2.374zM356.921 224.268a.948.948 0 0 1-.555-.198c-1.267-1.187-2.534-1.742-3.84-1.702-2.02.079-3.485 1.623-3.485 1.662a.766.766 0 0 1-1.109.04.765.765 0 0 1-.039-1.108c.079-.079 1.9-2.058 4.593-2.177 1.742-.079 3.445.633 5.029 2.137a.8.8 0 0 1 .039 1.108.968.968 0 0 1-.633.238z" fill="#163560"/><path d="M359.415 220.825a.95.95 0 0 1-.554-.198c-2.099-1.94-4.237-2.929-6.455-2.81-3.405.119-5.82 2.731-5.86 2.77a.766.766 0 0 1-1.109.04.803.803 0 0 1-.079-1.108c.119-.119 2.851-3.127 6.93-3.285 2.653-.119 5.187.989 7.602 3.245a.801.801 0 0 1 .04 1.108.64.64 0 0 1-.515.238z" fill="#163560"/><path d="M362.028 217.461a.943.943 0 0 1-.554-.198c-2.97-2.771-6.058-4.116-9.186-3.997-4.871.197-8.276 3.918-8.316 3.957a.766.766 0 0 1-1.109.04.804.804 0 0 1-.079-1.108c.159-.159 3.881-4.235 9.424-4.472 3.604-.159 7.049 1.345 10.335 4.432a.801.801 0 0 1 .04 1.108.782.782 0 0 1-.555.238zM199.752 216.747H184.23a1.047 1.047 0 0 1-1.029-1.028c0-.554.475-1.029 1.029-1.029h15.522c.555 0 1.03.475 1.03 1.029.039.554-.436 1.028-1.03 1.028zM199.752 221.299H184.23a1.048 1.048 0 0 1-1.029-1.029c0-.554.475-1.028 1.029-1.028h15.522c.554 0 1.03.474 1.03 1.028.039.554-.436 1.029-1.03 1.029zM199.752 226.166H184.23a1.047 1.047 0 0 1-1.029-1.028c0-.554.475-1.029 1.029-1.029h15.522c.554 0 1.03.475 1.03 1.029.039.593-.436 1.028-1.03 1.028z" fill="#163560"/><path d="M13.678 81.714s5.702-10.17 19.324-9.063c0 0 19.76-16.978 40.826-2.255 0 0 22.413-3.642 39.005 3.166 11.048 4.55 14.731 9.3 14.731 9.3L13.678 81.714zM106.735 38.576S119.407 15.9 149.74 18.392c0 0 44.034-37.795 90.958-5.026 0 0 49.895-8.113 86.841 7.045 24.63 10.092 32.788 20.698 32.788 20.698l-253.592-2.533zM64.285 124.18s9.662-16.9 32.709-15.039c0 0 33.5-28.179 69.219-3.76 0 0 37.975-6.055 66.09 5.224 18.77 7.519 24.948 15.435 24.948 15.435l-192.966-1.86z" fill="#F8FCFF"/><path d="M283.544 494.019c13.953 0 25.264-11.305 25.264-25.25s-11.311-25.249-25.264-25.249-25.264 11.304-25.264 25.249c0 13.945 11.311 25.25 25.264 25.25z" fill="#EBF2FF"/><path d="M245.648 472.292c.713 21.766 38.53 55.287 38.53 55.287s35.48-35.974 34.768-57.741c-.713-21.767-17.741-38.824-37.976-38.152-20.235.673-36.035 18.878-35.322 40.606zm14.968-2.81c-.396-11.873 8.989-21.886 20.869-22.321 11.959-.396 21.898 8.983 22.334 20.856.396 11.952-8.91 21.886-20.869 22.321-11.879.396-21.898-8.904-22.334-20.856z" fill="#F76748"/><path d="M621.878 331.415H605.92c-5.309 0-9.677-4.329-9.677-9.671V177.212c0-5.306 4.331-9.672 9.677-9.672h15.958c5.309 0 9.677 4.329 9.677 9.672v144.532c0 5.342-4.368 9.671-9.677 9.671z" fill="#fff" stroke="#163560"/><path d="M619.316 188.194c0-1.21-.209-2.112-.628-2.706-.418-.616-.947-1.034-1.586-1.254a4.84 4.84 0 0 0-1.817-.297l-2.147.033c-.462 0-.859.066-1.189.198-.33.11-.584.374-.76.792-.176.396-.264 1.023-.264 1.881v4.62l1.982-.066c2.158-.066 3.898.077 5.22.429 1.343.352 2.367.858 3.072 1.519.727.638 1.211 1.375 1.453 2.211.265.836.397 1.716.397 2.64 0 1.452-.353 2.684-1.057 3.696-.683.99-1.63 1.738-2.841 2.244-1.212.507-2.588.76-4.13.76h-11.232v-2.179c.507-.022.925-.088 1.255-.198.353-.11.617-.363.793-.759.198-.396.298-1.034.298-1.914v-12.64c0-.594.011-1.166.033-1.716l.099-1.254a65.89 65.89 0 0 1-1.322.066c-.528 0-.914.011-1.156.033v-2.541h17.509l.165 6.402h-2.147zm-8.391 11.452c0 .594-.011 1.155-.033 1.683-.022.528-.055.935-.099 1.221H612.973c.352-.022.694-.033 1.024-.033 1.344-.066 2.324-.506 2.94-1.32.617-.814.925-1.859.925-3.135 0-1.144-.209-2.024-.627-2.64-.419-.616-.958-1.045-1.619-1.287a5.643 5.643 0 0 0-2.015-.363h-1.421a8.111 8.111 0 0 0-1.255.033v5.841zM615.071 227.489a25.43 25.43 0 0 1-.099-.759c0-.22-.011-.473-.033-.759-.749.748-1.542 1.276-2.379 1.584a7.316 7.316 0 0 1-2.544.462c-1.409 0-2.51-.418-3.303-1.254-.793-.836-1.19-1.881-1.19-3.135 0-1.056.265-1.958.793-2.706.551-.748 1.267-1.353 2.148-1.815a11.663 11.663 0 0 1 2.973-1.09 17.058 17.058 0 0 1 3.303-.462v-1.716c0-.572-.077-1.089-.231-1.551-.132-.462-.374-.825-.727-1.089-.33-.264-.803-.385-1.42-.363-.419.022-.826.11-1.223.264a2.942 2.942 0 0 0-1.024.66c.177.198.287.418.331.66.044.22.066.418.066.594 0 .44-.176.902-.529 1.386-.352.462-.914.682-1.685.66-.66-.022-1.167-.253-1.519-.693a2.404 2.404 0 0 1-.529-1.551c0-.88.309-1.639.925-2.277.639-.66 1.487-1.166 2.544-1.518 1.057-.374 2.224-.561 3.502-.561 1.938 0 3.435.506 4.493 1.518 1.079.99 1.618 2.585 1.618 4.785v1.914c0 .529-.011 1.057-.033 1.585v1.914c0 .308-.011.748-.033 1.32-.022.55-.055 1.078-.099 1.584.375-.044.771-.066 1.189-.066.419-.022.738-.033.958-.033v2.508h-6.243zm-.364-7.59c-.616.066-1.2.176-1.751.33a5.467 5.467 0 0 0-1.453.627 3.296 3.296 0 0 0-.958.957c-.22.374-.33.792-.33 1.254.022.616.22 1.056.594 1.32.375.264.804.396 1.289.396.506 0 .98-.11 1.42-.33.441-.22.837-.506 1.189-.858V219.899zM612.362 235.729c-.595 0-1.035.121-1.322.363-.264.242-.44.583-.528 1.023-.066.44-.099.957-.099 1.551v6.105c0 .309-.011.749-.033 1.321-.022.55-.055 1.078-.099 1.584a9.352 9.352 0 0 1 1.156-.066c.44-.022.771-.033.991-.033v2.508h-8.655v-2.145c.616 0 1.057-.121 1.321-.363s.43-.583.496-1.023c.088-.462.132-.979.132-1.552v-6.105c0-.308.011-.748.033-1.32.022-.572.055-1.1.099-1.584-.352.022-.738.044-1.156.066-.419.022-.749.033-.991.033v-2.508h8.655v2.145zm4.889.627 1.586 1.65-9.481 9.109-1.619-1.683 9.514-9.076zm5.814-.627c-.594 0-1.035.121-1.321.363-.264.242-.44.583-.529 1.023-.066.44-.099.957-.099 1.551v6.105c0 .309-.011.749-.033 1.321-.022.55-.055 1.078-.099 1.584a9.376 9.376 0 0 1 1.156-.066c.441-.022.771-.033.992-.033v2.508h-8.656v-2.145c.617 0 1.057-.121 1.322-.363.264-.242.429-.583.495-1.023.088-.462.132-.979.132-1.552v-6.105c0-.308.011-.748.033-1.32.022-.572.055-1.1.099-1.584a116.8 116.8 0 0 1-1.156.066c-.418.022-.749.033-.991.033v-2.508h8.655v2.145zM604.334 272.153v-2.146c.617 0 1.057-.121 1.322-.363.286-.242.462-.583.528-1.023.088-.462.132-.979.132-1.551v-6.105c0-.308.011-.748.033-1.32.022-.573.055-1.101.099-1.585a116.8 116.8 0 0 1-1.156.066c-.418.022-.749.033-.991.033v-2.508h8.656v2.145c-.617 0-1.069.121-1.355.363-.264.242-.429.583-.495 1.023-.066.441-.099.958-.099 1.552v1.551h1.585l2.379-2.739c.286-.309.517-.573.694-.793a7.56 7.56 0 0 1 .594-.594h-1.751v-2.508h7.434v2.112c-.772.088-1.454.275-2.049.561a6.38 6.38 0 0 0-1.552.957c-.419.375-.783.738-1.091 1.09l-2.114 2.343c.331.176.65.418.958.726.331.286.727.737 1.189 1.353l2.214 2.904c.132.154.297.363.495.627.22.264.463.528.727.792.264.242.551.451.859.627.308.176.628.264.958.264v2.146h-3.799a2.654 2.654 0 0 1-1.85-.726c-.529-.507-1.134-1.222-1.817-2.146-.396-.528-.815-1.089-1.255-1.683-.419-.616-.816-1.188-1.19-1.716-.352-.55-.638-.979-.858-1.287l-.76.033v2.211a39.463 39.463 0 0 1-.132 2.904 9.352 9.352 0 0 1 1.156-.066c.418-.022.748-.033.991-.033v2.509h-8.689zM615.071 294.748a25.43 25.43 0 0 1-.099-.759c0-.22-.011-.473-.033-.759-.749.748-1.542 1.276-2.379 1.584a7.316 7.316 0 0 1-2.544.462c-1.409 0-2.51-.418-3.303-1.254-.793-.836-1.19-1.881-1.19-3.135 0-1.056.265-1.958.793-2.706.551-.748 1.267-1.353 2.148-1.815a11.7 11.7 0 0 1 2.973-1.09 17.058 17.058 0 0 1 3.303-.462v-1.716c0-.572-.077-1.089-.231-1.551-.132-.462-.374-.825-.727-1.089-.33-.264-.803-.385-1.42-.363-.419.022-.826.11-1.223.264a2.942 2.942 0 0 0-1.024.66c.177.198.287.418.331.66.044.22.066.418.066.594 0 .44-.176.902-.529 1.386-.352.462-.914.682-1.685.66-.66-.022-1.167-.253-1.519-.693a2.404 2.404 0 0 1-.529-1.551c0-.88.309-1.639.925-2.277.639-.66 1.487-1.166 2.544-1.518 1.057-.374 2.224-.561 3.502-.561 1.938 0 3.435.506 4.493 1.518 1.079.99 1.618 2.585 1.618 4.785v1.915c0 .528-.011 1.056-.033 1.584v1.914c0 .308-.011.748-.033 1.32-.022.55-.055 1.078-.099 1.584.375-.044.771-.066 1.189-.066.419-.022.738-.033.958-.033v2.508h-6.243zm-.364-7.59c-.616.066-1.2.176-1.751.33a5.467 5.467 0 0 0-1.453.627 3.296 3.296 0 0 0-.958.957c-.22.374-.33.792-.33 1.254.022.616.22 1.056.594 1.32.375.264.804.396 1.289.396.506 0 .98-.11 1.42-.33.441-.22.837-.506 1.189-.858V287.158zM606.597 317.806c-1.013 0-1.85-.275-2.51-.825-.661-.55-.992-1.265-.992-2.145 0-.726.21-1.276.628-1.65.419-.396.969-.594 1.652-.594.705 0 1.201.187 1.487.561.308.374.462.781.462 1.221 0 .286-.033.506-.099.66a2.037 2.037 0 0 1-.231.363c.066.066.176.099.33.099.595 0 1.113-.495 1.553-1.485.441-.99.804-2.41 1.09-4.258.287-1.848.507-4.07.661-6.666l-3.139.264v-2.508h16.222v2.145c-.617 0-1.068.121-1.355.363-.264.242-.44.583-.528 1.023-.066.44-.1.957-.1 1.551v6.106c0 .308-.01.748-.033 1.32-.021.55-.054 1.078-.099 1.584l2.148-.099v2.508h-8.689v-2.145c.617 0 1.057-.121 1.321-.363.287-.242.463-.583.529-1.023a8.24 8.24 0 0 0 .132-1.551v-6.106c0-.308.011-.715.033-1.221a30.3 30.3 0 0 1 .099-1.485h-2.477c-.529 0-.903.088-1.124.264-.22.176-.352.539-.396 1.089-.132 2.2-.374 4.114-.727 5.742-.33 1.629-.77 2.982-1.321 4.06-.529 1.078-1.179 1.881-1.95 2.409-.748.528-1.607.792-2.577.792z" fill="#2F70D9"/></svg>