<svg xmlns="http://www.w3.org/2000/svg" width="181" height="33" fill="none"><path stroke="#2F70D9" stroke-linecap="round" stroke-width="2" d="m141 3 1.402-1.083a2.925 2.925 0 0 1 3.638.07v0a2.878 2.878 0 0 0 3.651.013v0a2.857 2.857 0 0 1 3.636 0v0c1.056.87 2.581.87 3.637 0v0a2.857 2.857 0 0 1 3.636 0v0c1.056.87 2.581.87 3.636 0v0a2.858 2.858 0 0 1 3.637 0v0c1.055.87 2.58.87 3.636 0v0a2.858 2.858 0 0 1 3.637 0v0c1.055.871 2.58.872 3.636.003L180 1"/><path fill="#686868" d="M13.077 8.785v3.946H5.324v14.14H0V8.785h13.077Zm21.15 9.018c0 1.394-.183 2.664-.55 3.81-.358 1.139-.92 2.12-1.69 2.945-.769.825-1.757 1.46-2.964 1.905-1.207.437-2.65.655-4.332.655-1.645 0-3.071-.218-4.278-.655-1.198-.446-2.186-1.076-2.964-1.893-.778-.825-1.355-1.81-1.73-2.957-.376-1.146-.564-2.424-.564-3.835 0-1.88.336-3.513 1.006-4.899.68-1.393 1.726-2.47 3.139-3.228 1.412-.768 3.218-1.151 5.418-1.151 2.235 0 4.05.383 5.445 1.15 1.404.768 2.432 1.848 3.085 3.242s.979 3.03.979 4.911Zm-13.492 0c0 1.089.134 2.025.402 2.808.268.784.693 1.386 1.274 1.806.581.421 1.341.631 2.28.631.975 0 1.748-.21 2.32-.63.582-.421.997-1.023 1.248-1.807.259-.783.389-1.72.389-2.808 0-1.633-.295-2.924-.886-3.872-.59-.948-1.604-1.423-3.044-1.423-.957 0-1.73.215-2.32.644-.581.428-1.006 1.039-1.274 1.83-.26.792-.39 1.732-.39 2.821Zm25.764-5.27c-.626 0-1.185.124-1.677.371-.491.24-.912.59-1.26 1.052-.349.462-.617 1.026-.805 1.694-.179.66-.268 1.41-.268 2.252 0 1.138.156 2.095.47 2.87.312.775.786 1.361 1.42 1.757.645.396 1.45.594 2.415.594a9.41 9.41 0 0 0 2.521-.334c.814-.223 1.632-.491 2.455-.805v4.132c-.867.355-1.757.61-2.67.768-.902.156-1.864.235-2.883.235-2.128 0-3.871-.388-5.23-1.163-1.35-.784-2.348-1.868-2.991-3.254-.635-1.386-.953-2.994-.953-4.825 0-1.369.206-2.622.617-3.76a8.377 8.377 0 0 1 1.838-2.957c.805-.841 1.797-1.489 2.977-1.942 1.19-.462 2.549-.693 4.078-.693.947 0 1.944.103 2.99.309 1.055.198 2.084.52 3.085.965l-1.623 3.847a18.001 18.001 0 0 0-2.172-.791 8.275 8.275 0 0 0-2.334-.322Zm17.757 14.338H58.96v-14.09H54.17V8.784h14.86v3.995h-4.774v14.091Zm7.578-18.086h4.935v8.276c0 .37-.004.763-.012 1.175-.01.404-.024.804-.042 1.2-.017.396-.04.771-.066 1.126-.027.354-.059.668-.094.94h.107l8.074-12.717h6.076V26.87h-4.95v-7.83c0-.339.006-.723.014-1.151l.053-1.324.081-1.311c.036-.421.072-.788.108-1.102h-.121l-8.075 12.718h-6.088V8.785Zm40.034 18.086h-5.324v-7.373h-6.156v7.373h-5.324V8.785h5.324v6.705h6.156V8.785h5.324V26.87Zm4.252-18.086h4.936v8.276a54.092 54.092 0 0 1-.055 2.375c-.018.396-.04.771-.066 1.126-.027.354-.059.668-.094.94h.107l8.074-12.717h6.076V26.87h-4.949v-7.83c0-.339.004-.723.013-1.151l.053-1.324.081-1.311c.036-.421.072-.788.107-1.102h-.121l-8.074 12.718h-6.088V8.785Zm43.441 14.078V32.5h-5.163v-5.629h-15.049V8.785h5.325v14.078h5.446V8.785h5.324v14.078h4.117Zm14.646 4.008-.965-3.39h-6.371l-.993 3.39h-5.821l6.397-18.16h7.069L180 26.87h-5.793Zm-2.065-7.398-.845-2.969c-.091-.322-.22-.78-.39-1.373-.169-.602-.339-1.22-.51-1.856a58.482 58.482 0 0 1-.375-1.583 32.08 32.08 0 0 1-.348 1.534c-.143.602-.296 1.2-.456 1.793a45.617 45.617 0 0 1-.403 1.485l-.844 2.97h4.171Z"/></svg>