<svg xmlns="http://www.w3.org/2000/svg" width="60" height="60" fill="none"><rect width="60" height="60" fill="#A7D91A" rx="10"/><mask id="a" width="30" height="30" x="15" y="15" maskUnits="userSpaceOnUse" style="mask-type:luminance"><path fill="#fff" d="M15 15h30v30H15V15Z"/></mask><g mask="url(#a)"><path fill="#fff" fill-rule="evenodd" d="M36.769 32.978c-.373-.187-2.199-1.084-2.539-1.21-.34-.123-.587-.184-.836.188-.248.37-.959 1.208-1.175 1.455-.218.25-.434.28-.805.094-.372-.187-1.569-.579-2.988-1.844-1.103-.985-1.85-2.2-2.066-2.573-.216-.372-.024-.573.163-.758.167-.166.37-.434.557-.65.186-.217.248-.372.371-.621.125-.248.063-.464-.031-.65-.093-.186-.835-2.015-1.145-2.759-.301-.724-.607-.625-.835-.637a16.07 16.07 0 0 0-.713-.013c-.247 0-.65.093-.99.465-.34.371-1.3 1.27-1.3 3.099 0 1.827 1.33 3.594 1.517 3.842.186.248 2.619 4 6.345 5.61.887.382 1.579.61 2.117.78.89.284 1.7.244 2.34.148.713-.106 2.198-.899 2.508-1.766.308-.868.308-1.612.216-1.767-.092-.155-.34-.247-.712-.433ZM29.99 42.23h-.005c-2.213 0-4.386-.594-6.29-1.722l-.45-.268-4.677 1.228 1.248-4.56-.293-.468a12.326 12.326 0 0 1-1.889-6.575c.002-6.812 5.545-12.355 12.361-12.355 3.3 0 6.403 1.288 8.735 3.623a12.282 12.282 0 0 1 3.615 8.741c-.002 6.813-5.545 12.356-12.355 12.356Zm10.515-22.87A14.768 14.768 0 0 0 29.99 15c-8.192 0-14.862 6.668-14.865 14.864a14.83 14.83 0 0 0 1.984 7.431L15 45l7.88-2.067a14.851 14.851 0 0 0 7.105 1.81h.006c8.193 0 14.863-6.67 14.865-14.867a14.776 14.776 0 0 0-4.35-10.516Z" clip-rule="evenodd"/></g></svg>