<svg xmlns="http://www.w3.org/2000/svg" width="285" height="414" fill="none"><path fill="#FFB27D" d="M130.982 399.852s12.167-16.137 15.603-23.494l9.468-20.283 12.412 3.537-15.743 25.851-16.446 16.137-5.294-1.748Z"/><path fill="#163560" d="M209.385 3.666c2.876-1.87 6.277-2.073 8.696-1.91-.631-.732-1.823-1.017-1.823-1.017 1.473-.244 4.804 1.464 4.804 1.464 20.688-9.227 23.914 26.054 23.493 34.265-.421 8.21 6.943 10.893 17.707 17.356 20.513 12.316 22.336 28.819 22.336 28.819-.175.122-.315.244-.491.366-1.016-1.992-3.12-5.772-4.874-6.341.071.162 2.104 5.162 2.841 8.048-6.066 5.325-17.392 17.153-25.282 25.567.035-1.626-.035-3.983-.526-5.203l-.981 6.829c-4.208 4.512-7.154 7.682-7.154 7.682.526-6.625-25.842-41.582-39.622-52.069-3.366-5.73-4.523-15.811-4.629-16.624.561 8.007 1.754 12.519 2.805 15.04-11.676-12.48-4.873-57.313 2.7-62.272Z"/><path fill="#FFB27D" d="M209.315 67.97c-.07.04 6.627 4.064 11.677 2.479 4.733-1.504 7.854-8.658 7.784-8.658-1.999-.447-2.595-3.658-2.56-17.438l-.911.204-15.288 3.495s.35 5.569.35 10.813c.035 4.47-.21 8.657-1.052 9.104Z"/><path fill="#E37970" d="M226.602 9.438S219.063.13 209.596 8.95c-.035 0 5.505-1.098 17.006.488Z"/><path fill="#D68D5D" d="M210.017 48.093s.35 5.569.35 10.812c8.556-.285 13.079-9.308 14.938-14.348l-15.288 3.536Z"/><path fill="#163560" d="M226.918 42.647s4.488-8.211 5.575-15.243c.771-5-1.438-23.616-17.532-20.933 0 0-4.664.528-9.082 3.983-3.506 2.723-8.556 8.658-2.91 24.876l1.472 5.487 22.477 1.83Z"/><path fill="#80BDCC" d="m149.075 369.286 8.1.284 8.766.325s20.267-26.136 31.628-68.083c.28-.976.561-1.951.841-2.968 6.207-21.014 19.11-47.435 25.913-71.294 1.087-3.821 2.069-7.398 2.91-10.772.281-1.097.561-2.154.807-3.211 5.014-20.161 6.452-33.412 7.784-47.557l-49.055.447c.035 0-7.889 96.618-37.694 202.829Z"/><path fill="#F1A34F" d="M190.24 172.473s21.004 12.356 45.97 3.252c.28-.122-1.648-111.902-8.731-114.99-1.613 2.357-6.452 4.714-10.765 4.592-4.979-.122-6.592-2.601-6.312-5.284-5.294 3.415-9.537 6.666-9.537 6.666-4.488 9.065-10.625 105.764-10.625 105.764Z"/><path fill="#5F9AA8" d="M235.894 136.785c2.139 3.536 6.242 24.917 16.48 27.599-5.259-15.242-9.292-21.949-9.888-26.624-1.157-8.739-1.192-17.803-.596-26.339-3.436-6.95-5.996-11.747-5.996-11.747-.28-1.138-5.435-19.673-7.118-3.089-1.648 16.625 4.699 36.298 7.118 40.2Z"/><path fill="#FFB27D" d="M207.176 53.052s20.232.406 20.268-14.227c0-14.632 2.629-24.428-10.274-25.282-12.939-.853-15.429 4.715-16.481 9.593-1.051 4.877 1.228 29.428 6.487 29.916Z"/><path fill="#163560" d="M207.913 13.177s5.54 17.153 14.06 19.673c8.521 2.52 12.203-.122 12.203-.122s-6.522-6.015-7.89-16.502c0 .04-14.166-11.178-18.373-3.049Z"/><path fill="#163560" d="M209.315 14.6s-4.137 3.82-5.154 7.56c-1.017 3.74-1.473 11.381-3.401 11.138 0 0-4.173-11.666.526-18.25 4.979-7.033 8.029-.448 8.029-.448Z"/><path fill="#FFB27D" d="M125.722 77.318s-2.84-11.91-14.166-10.243c-1.297.488-5.084 2.236-2.665 6.91 1.788 3.455 2.56 1.667 5.365 6.341 2.805 4.675 5.856 5.731 9.362 5.162l2.104-8.17ZM222.324 397.454c.702-4.39 1.999-11.991 1.999-11.991l-.316-26.949h14.131l-5.294 25.811c-.106 1.179-.386 5.853 1.086 10.771 0 0 1.368 7.154-4.733 7.276-6.066.122-7.539-.528-6.873-4.918Z"/><path fill="#C45446" d="M221.763 405.868h12.658c.631-3.821-.456-10.772-.456-10.772-6.872 7.723-11.185-.203-11.185-.203-1.052 3.049-1.017 9.837-1.017 10.975ZM125.056 405.949h15.603c1.368-1.463 2.665-4.349 4.243-8.089.912-2.154 2.981-3.373 5.084-4.024v12.113h3.226l2.981-12.885c1.998-4.349.456-8.251-.947-11.666-1.613 0-6.311 1.301-14.587 12.398-2.735 3.658-5.715 4.959-8.731 4.837-.035.04-.07.04-.14.081-4.663 2.439-6.206 5.487-6.732 7.235Z"/><path fill="#B64C41" d="M125.722 77.318s13.289 8.618 18.023 11.097c2.7 1.423 8.941 4.796 13.324 7.194 2.806 1.504 6.102.691 8.1-2.032 7.189-9.755 25.948-30.892 45.198-33.493 0 0-11.711 33.534-12.062 40.322-.351 6.788-1.367 111.007-1.367 111.007s.701 4.796-7.224 2.804c-7.924-1.991-9.993-3.983-9.993-3.983s7.574-64.304 5.505-86.659c-.421-4.39-.035-9.349.807-14.471-11.747 8.292-25.632 11.95-25.632 11.95s-10.379-5.243-24.58-17.315c-4.454-3.78-12.273-18.21-12.273-18.21l2.174-8.21Z"/><path fill="#5F9AA8" d="m157.21 369.57 8.766.325s20.267-26.136 31.628-68.083c.28-.976.561-1.951.841-2.968 6.207-21.014 19.11-47.435 25.913-71.294 1.087-3.821 2.069-7.398 2.91-10.772.281-1.097.561-2.154.807-3.211l-7.224-6.341s-21.704 40.728-28.402 79.058c-5.82 33.29-29.208 73.328-35.239 83.286Z"/><path fill="#80BDCC" d="M220.115 289.861c-.14 18.657.701 61.499 2.77 79.221h7.784c4.278 0 6.452-.081 6.452-.081 5.26-30.851 8.977-56.377 11.712-78.367 2.244-18.047 4.208-33.534 5.75-46.826 1.543-13.413 2.595-24.632 2.981-34.102.07-1.504.105-2.927.14-4.35.035-1.422.035-2.804.035-4.146l-42.393-4.796c.456 32.64 4.839 82.595 4.769 93.447Z"/><path fill="#5F9AA8" d="M230.669 369.082c4.278 0 6.452-.081 6.452-.081 5.26-30.851 8.977-56.377 11.712-78.367 2.244-18.048 4.208-33.534 5.75-46.826 1.543-13.413 2.595-24.632 2.981-34.102l-15.569 10.608s9.923 4.065 6.137 34.794c-3.787 30.729-12.203 109.625-17.463 113.974Z"/><path fill="#B64C41" d="M228.671 209.38s2.98 12.52 13.324 10.894c10.344-1.585 25.036-8.78 25.036-8.78s-4.418-16.177-9.888-37.436c-.07-.203-.105-.447-.176-.691-6.486-25.079-14.411-57.028-18.338-77.798-.07-.447-.175-.894-.246-1.3-1.087-5.854-1.823-10.772-2.103-14.268l-8.731-19.267s-12.624 33.25-13.325 41.623c-.736 8.414 14.447 107.023 14.447 107.023Z"/><path fill="#FFB27D" d="m238.98 101.137-11.466-40.362c.035 0 14.446 4.918 21.634 9.105 0 0 4.488 6.707 7.259 22.152 0 0 2.945 37.111-3.612 50.687 0 0-20.653 4.797-53.719-8.373v-8.78s36.152 2.195 43.585 3.211l-3.681-27.64Z"/><path fill="#A53D38" d="M230.108 119.957c.456 13.413 3.156 39.224 26.825 53.451-6.487-25.079-14.412-57.028-18.339-77.799-4.313 7.642-8.731 17.275-8.486 24.348Z"/><path fill="#B64C41" d="M227.513 60.775s21.144 1.707 26.194 14.755c5.049 13.047 6.662 56.418.245 69.222 0 0-8.836 2.926-24.51-.488-.175-.041-.386-.081-.596-.122 0 0-4.979-14.186-.526-16.95 0 0 13.219.813 11.817-4.268-1.368-5.081-12.624-62.15-12.624-62.15Z"/><path fill="#FFB27D" d="M202.758 127.883s-2.875-4.065-3.506-8.17c-.631-4.146-2.525-7.194-7.504-7.967-4.979-.772-7.118-.853-7.083.773 0 1.626 4.067 12.966 11.185 19.754 7.154 6.788 6.908-4.39 6.908-4.39Z"/><path fill="#82B378" d="M117.934 333.168s-12.623-14.999-.799-24.551c0 0 8.668-5.325 15.739-4.918 0 0-10.027 17.072-6.791 18.779 3.235 1.707 9.786-19.836 9.786-19.836s19.733-1.951 26.045 1.138c0 0-16.857 14.023-13.302 14.877 3.555.854 21.77-12.926 21.77-12.926s18.335 3.171 17.376 14.552c-.958 11.381-7.31 14.917-10.066 14.592-2.796-.285-19.014-6.625-19.373-4.309-.36 2.317 9.427 9.878 16.297 10.244 0 0-12.942 14.51-21.53 10.324-8.588-4.187-9.347-10.812-14.7-13.332-5.353-2.48-9.946-2.48-7.709.04s11.903 5 14.979 10.528c3.076 5.528 5.832 9.227-3.076 7.885-8.908-1.382-23.368-7.966-24.007-15.567l-.639-7.52Z"/><path fill="#82B378" d="M178.771 320.608s-49.852-1.951-60.837 12.56c0 0-2.437 7.398-9.906 14.186l-1.159 3.251s8.628-9.267 11.744-9.836c-.04 0-4.873-18.007 60.158-20.161Z"/><path fill="#82B378" d="M107.988 347.354s-10.706 8.048-11.425 22.437l1.958.162s3.435-14.877 9.586-20.689c6.152-5.813-.119-1.91-.119-1.91Z"/><path fill="#A8D29F" d="M73.754 314.308s20.093-11.463 10.706-26.99c0 0-7.51-9.552-15.539-11.991 0 0 4.274 23.169 0 23.738-4.274.529-2.956-26.177-2.956-26.177s-21.17-10.365-29.48-9.552c0 0 13.143 22.641 8.829 22.112-4.275-.528-19.014-23.453-19.014-23.453s-21.73-4.105-25.206 8.983c-3.475 13.088 2.157 19.633 5.353 20.446 3.235.812 23.847.528 23.328 3.292-.52 2.723-14.46 7.073-22.25 4.634 0 0 8.589 21.543 19.853 20.445 11.265-1.097 14.74-8.17 21.73-8.739 6.95-.528 12.064 1.382 8.589 3.292-3.476 1.911-15.3.61-20.892 5.488-5.632 4.877-10.186 7.885.28 10.04 10.465 2.195 29.24.813 32.955-7.358l3.714-8.21Z"/><path fill="#82B378" d="M11 275.002s56.284 18.535 62.715 39.265c0 0-.28 9.267 5.352 19.917v4.105s-5.912-13.901-9.107-15.811c.04 0 12.623-18.007-58.96-47.476Z"/><path fill="#82B378" d="M79.107 334.225s8.668 13.413 3.715 29.753l-2.237-.609s2.157-18.007-2.357-27.031c-4.513-9.023.88-2.113.88-2.113Z"/><path fill="#A8D29F" d="M105.711 298.496s-26.484-15.121-14.14-35.607c0 0 9.906-12.6 20.491-15.812 0 0-5.672 30.567 0 31.299 5.672.731 3.875-34.51 3.875-34.51s27.921-13.657 38.866-12.6c0 0-17.296 29.835-11.664 29.144 5.633-.691 25.086-30.933 25.086-30.933s28.641-5.406 33.234 11.869c4.594 17.275-2.836 25.892-7.07 26.949-4.234 1.098-31.437.732-30.758 4.309.719 3.577 19.094 9.349 29.32 6.097 0 0-11.304 28.412-26.164 26.949-14.86-1.423-19.453-10.772-28.641-11.503-9.187-.732-15.898 1.788-11.304 4.308 4.594 2.52 20.132.813 27.562 7.235 7.43 6.423 13.422 10.365-.36 13.251-13.781 2.886-38.507 1.098-43.46-9.714l-4.873-10.731Z"/><path fill="#82B378" d="M188.397 246.712s-74.218 24.469-82.686 51.784c0 0 .359 12.235-7.07 26.258v5.406s7.789-18.332 12.023-20.852c0-.04-16.617-23.778 77.733-62.596Z"/><path fill="#82B378" d="M98.64 324.754s-11.424 17.681-4.913 39.224l2.956-.813s-2.876-23.697 3.116-35.647c5.992-11.91-1.159-2.764-1.159-2.764Z"/><path fill="#F1A34F" d="M104.832 410.641c28.681 0 51.929-23.656 51.929-52.841H52.903c0 29.185 23.248 52.841 51.929 52.841Z"/><path fill="#FFB973" d="M117.615 410.235a48.481 48.481 0 0 1-6.432.406c-28.68 0-51.929-23.656-51.929-52.841h12.903c0 26.949 19.813 49.183 45.458 52.435Z"/><path fill="#F1A34F" d="M157.48 413.324H52.224c0-3.618 2.876-6.504 6.392-6.504h92.473c3.515 0 6.391 2.886 6.391 6.504Z"/><path fill="#D86713" d="M157.959 357.8H51.226v1.626h106.733V357.8Z"/></svg>