<svg xmlns="http://www.w3.org/2000/svg" width="285" height="410" fill="none"><path fill="#D86713" d="M23.473 378.548c0 4.619-3.682 8.329-8.193 8.329-4.511 0-8.193-3.743-8.193-8.329s3.682-8.329 8.193-8.329c4.511 0 8.193 3.743 8.193 8.329Z"/><path fill="#F1A34F" d="M26.69 378.548c0 4.619-3.681 8.329-8.193 8.329-4.544 0-8.193-3.743-8.193-8.329s3.682-8.329 8.193-8.329c4.512 0 8.194 3.743 8.194 8.329Z"/><path fill="#D86713" d="M69.946 409.131c4.525 0 8.193-3.729 8.193-8.329 0-4.599-3.668-8.328-8.193-8.328-4.525 0-8.194 3.729-8.194 8.328 0 4.6 3.669 8.329 8.194 8.329Z"/><path fill="#F1A34F" d="M73.163 409.131c4.525 0 8.194-3.729 8.194-8.328 0-4.6-3.669-8.329-8.194-8.329s-8.193 3.729-8.193 8.329c0 4.599 3.668 8.328 8.193 8.328Z"/><path fill="#D86713" d="m8.812 369.511 9.088 8.599a10.89 10.89 0 0 0 3.152 2.057l61.134 25.862 11.377-8.295-84.751-28.223ZM137.548 276.313l-2.919-2.057c13.401-19.725 39.308-58.569 41.464-64.47 1.36-3.709 1.36-6.811.033-9.205-2.123-3.844-7.098-4.889-7.131-4.889l-.2-.034-13.566-4.248c-15.558-6.306-22.192 6.103-22.49 6.642l-.1.169-36.29 55.703-2.951-1.989 36.256-55.67c.331-.641 2.388-4.181 6.402-6.946 4.013-2.731 10.78-5.193 20.4-1.315l13.301 4.181c.896.202 6.668 1.619 9.421 6.609 1.891 3.372 1.957 7.486.232 12.24-2.819 7.789-40.269 62.953-41.862 65.279Z"/><path fill="#D86713" d="m133.468 262.32 30.053 20.973s7.928 8.126-1.161 24.378c-7.994 14.297-50.785 95.357-50.785 95.357s-8.923 16.859-43.62-4.249l65.513-136.459Z"/><path fill="#F1A34F" d="m141.894 293.408-48.563 90.501a22.792 22.792 0 0 1-8.06 8.632 22.48 22.48 0 0 1-20.832 1.619l-30.55-13.049-.763-.338-19.14-8.193c-1.924-.809-3.682-1.889-5.24-3.102-.366-.304-.73-.574-1.062-.911-5.673-5.091-8.459-12.779-7.497-20.332a23.531 23.531 0 0 1 3.284-9.34l51.846-84.263c5.54-8.969 16.354-13.016 26.272-9.779l5.606 1.821 1.327.439 1.127.371 18.742 6.069 2.289.742 18.078 5.867c2.82.91 5.341 2.326 7.497 4.113.132.102.265.236.431.371l.862.776c7.265 7.013 9.52 18.41 4.346 27.986Z"/><path fill="#D86713" d="M85.304 392.575a22.48 22.48 0 0 1-20.832 1.618l-30.55-13.049-.763-.337-19.14-8.194c-1.924-.809-3.682-1.888-5.24-3.102-.366-.303-.73-.573-1.062-.91-5.672-5.092-9.852-16.556-6.336-25.222 0 0 64.817 27.178 77.388 35.169 6.535 4.114 6.535 9.981 6.535 14.027Z" opacity=".4"/><path fill="#D86713" d="M89.716 247.517c-.166.034-17.979 2.63-23.087 9.509-5.241 7.081-56.79 93.67-57.287 94.513-.033.068-4.146 8.835.332 18.613l-.862-.641c-.365-.303-.73-.573-1.062-.91-3.914-9.846.332-17.399.53-17.702 2.124-3.575 52.112-87.5 57.387-94.649 4.61-6.238 17.514-8.868 21.627-9.542l1.327.438 1.095.371ZM110.746 254.328c-2.62.506-12.903 3.136-19.206 13.488-7.397 12.138-54.699 103.145-55.163 104.055l-.034.068-.033.067c-.033.034-3.25 4.654-1.592 9.475l-.763-.337-.763-.337c-1.426-4.99 1.659-9.037 2.123-9.61 1.46-2.799 47.833-92.018 55.164-104.056 5.44-8.901 13.699-12.341 17.978-13.555l2.289.742ZM137.615 265.489c-.067 0-3.715.405-7.464 2.226-3.748 1.821-8.392 5.125-12.008 11.06-7.397 12.138-52.974 103.482-53.438 104.393l-.033.067-.067.067c-.033.034-2.72 5.665-1.061 10.487l-1.924-.809c-1.062-4.181 1.492-9.846 1.99-10.453 1.46-2.934 46.108-92.389 53.472-104.427 6.899-11.329 17.149-13.42 19.272-13.757.133.101.266.236.431.371l.83.775Z"/><path fill="#233862" d="M137.899 378.009s-6.535 6.136-5.242 10.52c1.261 4.35 7.165 7.283 7.962 12.611.796 5.327 3.98 8.227 6.833 8.227h13.633s2.123-3.743-2.985-4.889c-5.076-1.147-6.999-7.385-6.701-13.218.332-5.833-.464-13.588-.464-13.588l-10.814-2.597-2.222 2.934ZM256.087 409.367h-36.223c-.298-.067-.564-.135-.696-.202-2.422-1.214-1.659-10.622-1.36-13.521.066-.54.099-.843.099-.843s12.738-10.352 14.463-2.428c.066.236.132.506.199.742 2.189 7.418 12.074 10.79 17.779 11.7 4.313.674 5.44 3.271 5.739 4.552Z"/><path fill="#2B478B" d="M248.789 197.344s-1.924 24.514-4.212 53.95c-3.085 39.99-6.8 89.152-7.165 98.458-.631 16.152-3.185 42.014-3.185 42.014s-6.037 6.137-18.111 3.54c0 0-10.781-36.922-13.833-75.968-.033-.641-.099-1.281-.132-1.922-2.853-39.754-7.298-123.478-7.298-123.478l53.936 3.406Z"/><path fill="#233862" d="M248.789 197.344s-1.924 24.514-4.212 53.95l-42.294 68.044c-.033-.641-.099-1.281-.132-1.922-2.853-39.754-7.298-123.478-7.298-123.478l53.936 3.406Z"/><path fill="#2B478B" d="M239.966 200.244s-34.83 88.714-57.718 130.424c-22.888 41.71-30.053 53.343-30.053 53.343s-13.102-5.328-14.297-8.97c0 0 8.758-80.486 24.083-100.11 8.657-11.094 18.841-44.374 19.305-56.007.465-11.633 3.085-34.663 3.085-34.663l55.595 15.983Z"/><path fill="#FFB27D" d="m275.193 175.764 1.991 4.046s10.117 1.45 7.331 12.173c0 0-1.493 4.417-4.28 3.001-2.786-1.383-1.426-1.281-5.407-3.17-4.013-1.888-6.302-5.496-5.406-8.8l-.631-3.507 6.402-3.743ZM222.12 63.313c1.559-9.307 1.592-14.803 1.592-14.803l-17.68-14.465c.663 19.894-11.875 29.47-11.875 29.47s23.551 11.768 37.151 7.418c0-.034-3.35-4.384-9.188-7.62Z"/><path fill="#FFB27D" d="M227.891 48.173s-22.489 3.81-24.579-10.453c-2.123-14.263-6.435-23.367 7.828-26.401 14.264-3.035 17.846 1.989 19.704 6.575 1.824 4.552 2.819 28.93-2.953 30.279Z"/><path fill="#233862" d="M203.444 38.698s.465-19.119 20.931-22.187c14.032-2.09 5.54-14.027 3.915-15.915 0 0-10.715 2.09-21.694 4.518-23.021 5.159-5.573 30.718-3.152 33.584Z"/><path fill="#4A75CB" d="M272.838 181.362c3.019-3.136 5.241-7.216 5.241-7.216s-25.541-32.235-27.598-35.607c-2.09-3.338-17.581-56.985-17.581-56.985l-39.208-8.058s32.74 68.651 38.147 77.013c8.956 13.825 35.758 34.427 35.758 34.427s2.886-1.113 5.241-3.574Z"/><path fill="#739AF0" d="M250.315 199.367a2.21 2.21 0 0 1-1.426.54c-5.109-.068-20.002 2.798-32.607 1.483-10.615-1.045-20.036-4.248-30.153-8.834-1.327-.607-4.445-2.293-4.345-3.81.033-1.652.199-4.08.398-7.148.73-10.588 1.957-28.83.73-49.87a195.504 195.504 0 0 1-.332-11.633c-.1-28.492 5.374-53.714 16.519-62.211.962-.708 6.9 2.36 12.306 5.058 4.976 2.495 8.459 2.427 13.136 1.483l6.203 4.552c5.739 5.395 12.008 12.746 14.728 23.907 2.322 9.475 3.682 26.604 4.445 44.34.332 8.025.63 16.151.697 23.839v.27c.066.775.066 1.584.066 2.36.232 19.759-.033 35.405-.365 35.674Z"/><path fill="#4A75CB" d="M182.182 181.631c.73-10.588 1.957-28.829.73-49.87a195.48 195.48 0 0 1-.332-11.633c4.644-11.464 8.458-19.793 8.458-19.793h11.743c-.033.034 8.591 59.75-20.599 81.296Z"/><path fill="#FFB27D" d="m159.36 185.374-2.222 3.911s4.378 9.408-6.004 12.915c0 0-4.445 1.146-4.843-1.99-.365-3.136.265-1.888-.365-6.339-.63-4.417 1.061-8.362 4.279-9.441l2.521-2.461 6.634 3.405Z"/><path fill="#739AF0" d="M153.456 186.419c4.212.843 8.79.506 8.79.506s12.539-39.383 14.164-42.991c1.625-3.608 37.251-46.195 37.251-46.195L198.8 59.974s-38.544 65.448-42.458 74.653c-6.469 15.208-8.724 49.263-8.724 49.263s2.521 1.889 5.838 2.529Z"/></svg>