<svg xmlns="http://www.w3.org/2000/svg" width="180" height="45" fill="none"><path fill="#2F70D9" d="M23.884 18.489c0-1.863-.322-3.25-.966-4.165-.643-.948-1.456-1.591-2.439-1.93-.948-.338-1.88-.49-2.795-.457l-3.303.05c-.711 0-1.321.102-1.83.306-.507.169-.897.575-1.168 1.218-.271.61-.407 1.575-.407 2.895v7.11l3.05-.101c3.32-.102 5.996.119 8.029.66 2.066.542 3.641 1.32 4.725 2.337 1.118.981 1.864 2.116 2.236 3.402.407 1.287.61 2.641.61 4.063 0 2.235-.542 4.131-1.626 5.688-1.05 1.524-2.507 2.675-4.37 3.454-1.863.779-3.98 1.168-6.352 1.168H0v-3.352c.78-.034 1.423-.135 1.931-.304.542-.17.949-.56 1.22-1.169.305-.61.457-1.591.457-2.945V16.965c0-.914.017-1.795.05-2.641.069-.847.12-1.49.153-1.93a100.3 100.3 0 0 1-2.032.102c-.813 0-1.406.017-1.779.05v-3.91h26.933l.254 9.853h-3.303ZM10.976 36.112c0 .914-.017 1.777-.05 2.59-.034.813-.085 1.44-.153 1.88h3.354c.542-.035 1.067-.051 1.575-.051 2.067-.102 3.574-.78 4.523-2.032.949-1.253 1.423-2.861 1.423-4.825 0-1.76-.322-3.115-.966-4.063-.643-.948-1.473-1.608-2.49-1.98a8.67 8.67 0 0 0-3.1-.56h-2.184a12.488 12.488 0 0 0-1.932.051v8.99Zm36.29 8.075a39.743 39.743 0 0 1-.152-1.168c0-.338-.017-.728-.051-1.168-1.152 1.151-2.371 1.964-3.659 2.438a11.245 11.245 0 0 1-3.913.71c-2.168 0-3.862-.642-5.081-1.93-1.22-1.286-1.83-2.894-1.83-4.824 0-1.625.407-3.013 1.22-4.165.847-1.15 1.948-2.082 3.303-2.793 1.389-.745 2.913-1.303 4.573-1.676a26.236 26.236 0 0 1 5.082-.71v-2.642c0-.88-.118-1.676-.356-2.387-.203-.71-.575-1.27-1.118-1.676-.508-.406-1.236-.592-2.185-.559-.643.034-1.27.17-1.88.407a4.51 4.51 0 0 0-1.575 1.015c.27.305.44.644.508 1.016.068.339.102.643.102.914 0 .678-.271 1.389-.813 2.133-.543.712-1.406 1.05-2.592 1.016-1.016-.034-1.796-.39-2.338-1.066-.542-.677-.813-1.473-.813-2.387 0-1.355.474-2.523 1.423-3.505.983-1.015 2.287-1.794 3.913-2.336 1.626-.576 3.422-.863 5.386-.863 2.982 0 5.285.778 6.912 2.336 1.66 1.524 2.49 3.978 2.49 7.364v2.946c0 .813-.017 1.625-.051 2.438v2.945c0 .474-.017 1.151-.051 2.032a52.25 52.25 0 0 1-.152 2.438 15.685 15.685 0 0 1 1.829-.102 30.39 30.39 0 0 1 1.474-.05v3.86h-9.605Zm-.559-11.681a16.51 16.51 0 0 0-2.693.508c-.847.237-1.592.559-2.236.965a5.088 5.088 0 0 0-1.474 1.473 3.733 3.733 0 0 0-.508 1.93c.034.948.34 1.625.915 2.031.576.407 1.236.61 1.982.61.779 0 1.507-.17 2.185-.508a6.996 6.996 0 0 0 1.83-1.32v-5.689Zm26.294-10.412c-.915 0-1.593.187-2.033.56-.407.372-.678.896-.813 1.574a16.293 16.293 0 0 0-.153 2.387v9.395c0 .474-.016 1.151-.05 2.032a52.246 52.246 0 0 1-.153 2.438 14.407 14.407 0 0 1 1.779-.102 33.52 33.52 0 0 1 1.524-.05v3.86H59.788v-3.302c.949 0 1.626-.186 2.033-.559.406-.372.66-.897.762-1.574.136-.711.203-1.507.203-2.387V26.97c0-.474.017-1.151.051-2.031.034-.88.085-1.693.153-2.438-.542.034-1.135.068-1.779.101a30.77 30.77 0 0 1-1.524.051v-3.86H73v3.302Zm7.52.965 2.44 2.54-14.585 14.017-2.49-2.59L80.522 23.06Zm8.944-.965c-.915 0-1.592.187-2.032.56-.407.372-.678.896-.814 1.574a16.293 16.293 0 0 0-.152 2.387v9.395c0 .474-.017 1.151-.05 2.032a52.112 52.112 0 0 1-.153 2.438 14.405 14.405 0 0 1 1.778-.102 33.52 33.52 0 0 1 1.525-.05v3.86H76.253v-3.302c.948 0 1.626-.186 2.032-.559.407-.372.661-.897.763-1.574.135-.711.203-1.507.203-2.387V26.97c0-.474.017-1.151.05-2.031.035-.88.086-1.693.153-2.438-.542.034-1.134.068-1.778.101a30.77 30.77 0 0 1-1.525.051v-3.86h13.314v3.302Zm2.958 22.093v-3.301c.948 0 1.626-.186 2.033-.559.44-.372.711-.897.813-1.574.135-.711.203-1.507.203-2.387V26.97c0-.474.017-1.151.05-2.031.035-.88.085-1.693.153-2.438-.542.034-1.135.068-1.778.101a30.77 30.77 0 0 1-1.525.051v-3.86h13.315v3.302c-.95 0-1.644.186-2.084.558-.406.373-.66.897-.762 1.575a16.245 16.245 0 0 0-.153 2.387v2.387h2.44l3.658-4.216c.441-.474.796-.88 1.068-1.219.305-.338.609-.643.914-.914h-2.693v-3.86h11.434v3.25c-1.186.136-2.236.424-3.151.864a9.792 9.792 0 0 0-2.388 1.473 19.175 19.175 0 0 0-1.677 1.676l-3.252 3.606c.508.27.999.643 1.473 1.117.508.44 1.118 1.134 1.83 2.082l3.404 4.47c.204.237.458.558.763.965.338.406.711.812 1.118 1.219a7.29 7.29 0 0 0 1.321.965c.473.27.965.406 1.473.406v3.301h-5.843c-1.085 0-2.033-.372-2.846-1.117-.813-.779-1.745-1.88-2.795-3.301-.61-.813-1.254-1.676-1.931-2.59a161.945 161.945 0 0 0-1.83-2.642 49.253 49.253 0 0 0-1.321-1.98l-1.169.05v3.403a58.525 58.525 0 0 1-.203 4.47 14.396 14.396 0 0 1 1.779-.102c.643-.034 1.151-.05 1.524-.05v3.86H92.423Zm44.914 0a35.531 35.531 0 0 1-.152-1.168c0-.338-.017-.728-.051-1.168-1.152 1.151-2.372 1.964-3.659 2.438a11.24 11.24 0 0 1-3.913.71c-2.168 0-3.862-.642-5.081-1.93-1.22-1.286-1.83-2.894-1.83-4.824 0-1.625.407-3.013 1.22-4.165.846-1.15 1.947-2.082 3.303-2.793 1.388-.745 2.913-1.303 4.573-1.676a26.237 26.237 0 0 1 5.082-.71v-2.642c0-.88-.119-1.676-.356-2.387-.203-.71-.576-1.27-1.118-1.676-.508-.406-1.236-.592-2.185-.559-.644.034-1.27.17-1.88.407a4.503 4.503 0 0 0-1.575 1.015c.27.305.44.644.508 1.016.067.339.102.643.102.914 0 .678-.272 1.389-.813 2.133-.543.712-1.407 1.05-2.592 1.016-1.016-.034-1.796-.39-2.338-1.066-.542-.677-.813-1.473-.813-2.387 0-1.355.474-2.523 1.423-3.505.982-1.015 2.287-1.794 3.913-2.336 1.626-.576 3.421-.863 5.387-.863 2.981 0 5.285.778 6.911 2.336 1.659 1.524 2.49 3.978 2.49 7.364v2.946c0 .813-.018 1.625-.051 2.438v2.945c0 .474-.017 1.151-.051 2.032a53.526 53.526 0 0 1-.152 2.438 15.663 15.663 0 0 1 1.829-.102c.643-.034 1.134-.05 1.474-.05v3.86h-9.605Zm-.559-11.681c-.949.102-1.846.27-2.693.508-.848.237-1.593.559-2.236.965a5.078 5.078 0 0 0-1.474 1.473 3.731 3.731 0 0 0-.508 1.93c.034.948.339 1.625.915 2.031.575.407 1.236.61 1.982.61.778 0 1.507-.17 2.185-.508a7.004 7.004 0 0 0 1.829-1.32v-5.689Zm16.638 12.392c-1.558 0-2.846-.423-3.862-1.27-1.017-.846-1.525-1.946-1.525-3.3 0-1.118.322-1.964.966-2.54.644-.61 1.491-.914 2.541-.914 1.084 0 1.846.287 2.286.863.475.576.712 1.202.712 1.88 0 .44-.051.778-.153 1.015-.101.203-.219.39-.355.559.101.101.271.152.508.152.914 0 1.711-.762 2.388-2.285.678-1.524 1.237-3.708 1.677-6.552.441-2.844.78-6.264 1.016-10.26l-4.827.407v-3.86h24.951v3.302c-.948 0-1.643.186-2.084.558-.406.373-.677.897-.813 1.575a16.397 16.397 0 0 0-.152 2.387v9.395c0 .474-.016 1.151-.051 2.032a52.126 52.126 0 0 1-.152 2.438l3.303-.153v3.86h-13.365v-3.301c.949 0 1.626-.186 2.033-.559.441-.372.711-.897.813-1.574.136-.711.203-1.507.203-2.387V26.97c0-.474.017-1.1.051-1.879.034-.813.085-1.574.152-2.286h-3.811c-.813 0-1.388.136-1.728.407-.338.27-.542.83-.61 1.676-.203 3.386-.575 6.331-1.118 8.837-.508 2.505-1.185 4.588-2.032 6.247-.813 1.659-1.812 2.895-2.999 3.707-1.151.813-2.472 1.22-3.963 1.22Z"/><path fill="#fff" d="M56.472.228v3.164h-5.737V14.73h-3.94V.228h9.677ZM72.124 7.46c0 1.118-.136 2.136-.407 3.056-.265.912-.681 1.7-1.25 2.36-.57.662-1.3 1.171-2.194 1.528-.893.35-1.962.526-3.206.526-1.217 0-2.273-.175-3.166-.526-.887-.357-1.618-.863-2.193-1.518-.576-.66-1.003-1.451-1.28-2.37-.279-.92-.418-1.945-.418-3.075 0-1.508.249-2.818.745-3.929A5.56 5.56 0 0 1 61.077.923C62.123.307 63.46 0 65.087 0c1.654 0 2.997.307 4.03.923a5.464 5.464 0 0 1 2.282 2.598c.483 1.118.725 2.43.725 3.938Zm-9.985 0c0 .873.1 1.624.298 2.252.199.628.513 1.111.943 1.448.43.338.992.506 1.687.506.721 0 1.294-.168 1.717-.505.43-.338.738-.82.923-1.449.192-.628.288-1.379.288-2.252 0-1.309-.218-2.344-.655-3.104-.437-.76-1.188-1.141-2.253-1.141-.708 0-1.28.172-1.717.516-.43.344-.744.833-.943 1.468-.192.635-.288 1.389-.288 2.261Zm19.066-4.225c-.463 0-.876.099-1.24.297a2.627 2.627 0 0 0-.933.844c-.258.37-.457.823-.596 1.358a7.465 7.465 0 0 0-.198 1.806c0 .912.116 1.68.347 2.301.232.622.583 1.091 1.052 1.409.477.317 1.072.476 1.787.476.648 0 1.27-.09 1.866-.268a18.667 18.667 0 0 0 1.816-.645v3.313a8.87 8.87 0 0 1-1.975.615c-.668.126-1.38.189-2.134.189-1.575 0-2.865-.311-3.87-.933a5.62 5.62 0 0 1-2.214-2.608c-.47-1.111-.705-2.4-.705-3.869 0-1.098.153-2.103.457-3.016a6.823 6.823 0 0 1 1.36-2.37A5.935 5.935 0 0 1 78.228.575c.88-.37 1.886-.555 3.017-.555.702 0 1.44.082 2.213.248a9.69 9.69 0 0 1 2.283.774l-1.2 3.084a12.682 12.682 0 0 0-1.608-.634 5.684 5.684 0 0 0-1.728-.258ZM94.347 14.73h-3.92V3.432h-3.543V.228H97.88v3.204h-3.534V14.73ZM99.954.228h3.652v6.636a49.808 49.808 0 0 1-.039 1.905c-.014.317-.03.618-.049.902-.021.285-.044.536-.07.754h.079L109.502.228h4.496V14.73h-3.663V8.451c0-.27.004-.578.01-.922.014-.344.027-.698.04-1.062l.06-1.05c.027-.338.053-.633.079-.884h-.089L104.46 14.73h-4.505V.228Zm29.627 14.502h-3.941V8.819h-4.555v5.912h-3.94V.228h3.94v5.376h4.555V.228h3.941V14.73ZM132.727.228h3.653v6.636a49.758 49.758 0 0 1-.041 1.905c-.013.317-.029.618-.049.902-.02.285-.043.536-.07.754h.08L142.275.228h4.496V14.73h-3.662V8.451c0-.27.003-.578.009-.922l.04-1.062.06-1.05c.026-.338.053-.633.079-.884h-.089l-5.975 10.197h-4.506V.228Zm32.148 11.289v7.727h-3.822V14.73h-11.135V.228h3.94v11.289h4.03V.228h3.94v11.289h3.047Zm10.838 3.213-.714-2.718h-4.715l-.735 2.718h-4.307L169.976.17h5.231L180 14.73h-4.287ZM174.185 8.8l-.626-2.381c-.067-.258-.162-.625-.288-1.101-.125-.483-.251-.979-.377-1.488-.119-.516-.212-.94-.278-1.27-.06.33-.145.74-.258 1.23-.106.483-.218.962-.337 1.439-.113.476-.212.872-.298 1.19l-.625 2.38h3.087Z"/></svg>