<svg xmlns="http://www.w3.org/2000/svg" width="160" height="40" fill="none"><path fill="#2F70D9" d="M21.23 17.247c0-1.598-.286-2.79-.858-3.574-.572-.813-1.295-1.366-2.168-1.656a6.835 6.835 0 0 0-2.485-.392l-2.936.043c-.632 0-1.174.088-1.626.262-.452.145-.798.494-1.039 1.046-.24.523-.361 1.351-.361 2.484v6.103l2.71-.088c2.951-.087 5.33.102 7.137.567 1.837.465 3.237 1.133 4.2 2.005.995.843 1.657 1.816 1.988 2.92a11.14 11.14 0 0 1 .542 3.487c0 1.918-.481 3.545-1.445 4.882-.934 1.308-2.229 2.296-3.885 2.964-1.656.669-3.538 1.003-5.646 1.003H0v-2.877c.693-.03 1.265-.116 1.716-.262.482-.145.844-.48 1.085-1.002.27-.523.406-1.366.406-2.528V15.94c0-.785.015-1.54.045-2.267.06-.726.106-1.278.136-1.656-.482.029-1.084.058-1.807.087-.723 0-1.25.015-1.581.044V8.792h23.94l.226 8.455H21.23ZM9.757 32.373c0 .785-.015 1.526-.045 2.223-.03.698-.076 1.235-.136 1.613h2.981c.482-.03.949-.044 1.4-.044 1.838-.087 3.178-.668 4.02-1.743.844-1.075 1.266-2.456 1.266-4.141 0-1.51-.287-2.673-.859-3.487-.572-.813-1.31-1.38-2.213-1.7a7.951 7.951 0 0 0-2.755-.48h-1.943a11.482 11.482 0 0 0-1.716.044v7.715Zm32.258 6.93c-.06-.406-.106-.74-.136-1.002 0-.29-.015-.625-.045-1.002-1.024.987-2.108 1.685-3.253 2.092-1.144.407-2.303.61-3.478.61-1.927 0-3.433-.552-4.517-1.656-1.084-1.105-1.626-2.485-1.626-4.141 0-1.395.362-2.586 1.084-3.574.753-.988 1.732-1.787 2.936-2.398a16.307 16.307 0 0 1 4.066-1.438 24.11 24.11 0 0 1 4.517-.61v-2.267c0-.755-.106-1.438-.316-2.048-.181-.61-.512-1.09-.994-1.439-.452-.348-1.1-.508-1.943-.48a5.526 5.526 0 0 0-1.67.35 4.025 4.025 0 0 0-1.401.871c.24.262.391.552.452.872.06.29.09.552.09.785 0 .58-.24 1.191-.723 1.83-.482.61-1.25.901-2.303.872-.904-.029-1.596-.334-2.078-.915-.482-.582-.723-1.264-.723-2.049 0-1.162.422-2.165 1.265-3.007.873-.872 2.032-1.54 3.478-2.005 1.445-.495 3.041-.741 4.788-.741 2.65 0 4.698.668 6.143 2.005 1.476 1.307 2.214 3.414 2.214 6.32v2.528c0 .697-.015 1.395-.046 2.092v2.528c0 .407-.015.988-.045 1.744-.03.726-.075 1.423-.135 2.092a14.437 14.437 0 0 1 1.626-.087c.572-.03 1.009-.044 1.31-.044v3.313h-8.538Zm-.497-10.024c-.844.087-1.642.232-2.394.435a7.618 7.618 0 0 0-1.988.829c-.542.348-.979.77-1.31 1.264a3.12 3.12 0 0 0-.452 1.656c.03.813.302 1.395.813 1.743.512.35 1.1.523 1.762.523.693 0 1.34-.145 1.943-.435a6.22 6.22 0 0 0 1.626-1.134v-4.882Zm23.371-8.936c-.813 0-1.415.16-1.806.48-.362.32-.603.77-.723 1.35-.09.582-.136 1.265-.136 2.05v8.063c0 .407-.015.988-.045 1.744-.03.726-.075 1.423-.135 2.092a13.258 13.258 0 0 1 1.58-.087c.603-.03 1.055-.044 1.356-.044v3.313H53.145v-2.834c.843 0 1.446-.16 1.807-.479.361-.32.587-.77.678-1.351.12-.61.18-1.293.18-2.049v-8.064c0-.406.015-.987.045-1.743.03-.756.076-1.453.136-2.092-.482.029-1.009.058-1.581.087-.572.029-1.024.044-1.355.044v-3.313h11.834v2.833Zm6.686.828 2.168 2.18-12.964 12.03-2.213-2.223L71.575 21.17Zm7.95-.828c-.813 0-1.416.16-1.807.48-.362.32-.602.77-.723 1.35-.09.582-.135 1.265-.135 2.05v8.063c0 .407-.015.988-.046 1.744-.03.726-.075 1.423-.135 2.092a13.259 13.259 0 0 1 1.58-.087c.603-.03 1.055-.044 1.356-.044v3.313H67.78v-2.834c.844 0 1.446-.16 1.807-.479.361-.32.587-.77.678-1.351.12-.61.18-1.293.18-2.049v-8.064c0-.406.016-.987.046-1.743.03-.756.075-1.453.135-2.092-.482.029-1.009.058-1.58.087-.573.029-1.025.044-1.356.044v-3.313h11.835v2.833Zm2.629 18.96V36.47c.843 0 1.445-.16 1.807-.479.391-.32.632-.77.722-1.351.12-.61.181-1.293.181-2.049v-8.064c0-.406.015-.987.045-1.743.03-.756.075-1.453.136-2.092-.482.029-1.01.058-1.581.087-.573.029-1.024.044-1.355.044v-3.313h11.835v2.833c-.844 0-1.461.16-1.852.48-.362.32-.588.77-.678 1.35-.09.582-.135 1.265-.135 2.05v2.048h2.168l3.252-3.618c.391-.407.707-.755.949-1.046.27-.29.542-.552.813-.784h-2.394v-3.313h10.163v2.79c-1.054.116-1.987.363-2.801.74a8.776 8.776 0 0 0-2.123 1.265c-.572.494-1.069.973-1.49 1.438l-2.891 3.095c.452.232.888.552 1.31.959.452.377.994.973 1.626 1.787l3.026 3.835c.181.204.407.48.678.828.301.35.632.698.994 1.047.361.32.752.595 1.174.828.421.232.858.348 1.31.348v2.834h-5.194a3.7 3.7 0 0 1-2.53-.96c-.723-.668-1.551-1.612-2.484-2.833a433.45 433.45 0 0 1-1.717-2.222c-.573-.814-1.115-1.57-1.626-2.267a43.296 43.296 0 0 0-1.175-1.7l-1.038.044v2.92c0 .407-.016.988-.045 1.744-.031.726-.076 1.423-.136 2.092a13.248 13.248 0 0 1 1.58-.087c.573-.03 1.025-.044 1.356-.044v3.313h-11.88Zm39.924 0a30.134 30.134 0 0 1-.136-1.002c0-.29-.015-.625-.045-1.002-1.025.987-2.109 1.685-3.252 2.092a10.32 10.32 0 0 1-3.478.61c-1.928 0-3.433-.552-4.517-1.656-1.085-1.105-1.627-2.485-1.627-4.141 0-1.395.362-2.586 1.084-3.574.753-.988 1.731-1.787 2.937-2.398a16.288 16.288 0 0 1 4.065-1.438 24.098 24.098 0 0 1 4.517-.61v-2.267c0-.755-.106-1.438-.316-2.048-.181-.61-.512-1.09-.994-1.439-.452-.348-1.099-.508-1.942-.48a5.525 5.525 0 0 0-1.672.35 4.02 4.02 0 0 0-1.4.871c.24.262.391.552.452.872.059.29.09.552.09.785 0 .58-.241 1.191-.723 1.83-.482.61-1.25.901-2.303.872-.904-.029-1.597-.334-2.078-.915-.483-.582-.723-1.264-.723-2.049 0-1.162.421-2.165 1.265-3.007.873-.872 2.033-1.54 3.478-2.005 1.445-.495 3.041-.741 4.788-.741 2.65 0 4.698.668 6.143 2.005 1.476 1.307 2.214 3.414 2.214 6.32v2.528c0 .697-.016 1.395-.046 2.092v2.528c0 .407-.015.988-.045 1.744-.03.726-.076 1.423-.135 2.092a14.411 14.411 0 0 1 1.626-.087c.572-.03 1.008-.044 1.31-.044v3.313h-8.537Zm-.497-10.024c-.844.087-1.642.232-2.394.435a7.601 7.601 0 0 0-1.988.829c-.542.348-.979.77-1.31 1.264a3.12 3.12 0 0 0-.451 1.656c.029.813.3 1.395.813 1.743.511.35 1.098.523 1.761.523a4.42 4.42 0 0 0 1.943-.435 6.26 6.26 0 0 0 1.626-1.134v-4.882Zm14.789 10.635c-1.385 0-2.53-.363-3.433-1.09-.904-.726-1.356-1.67-1.356-2.833 0-.959.287-1.685.859-2.18.572-.522 1.325-.784 2.258-.784.964 0 1.642.247 2.033.741.422.494.632 1.032.632 1.613 0 .377-.045.668-.135.871a2.692 2.692 0 0 1-.316.48c.09.087.241.13.451.13.813 0 1.522-.653 2.123-1.96.603-1.308 1.1-3.183 1.491-5.624.392-2.44.693-5.375.903-8.804l-4.291.349v-3.313h22.179v2.833c-.843 0-1.46.16-1.852.48-.361.32-.602.77-.723 1.35-.09.582-.135 1.265-.135 2.05v8.063c0 .407-.015.988-.046 1.744a42.238 42.238 0 0 1-.135 2.092l2.936-.131v3.313h-11.88v-2.834c.844 0 1.446-.16 1.807-.479.392-.32.632-.77.723-1.351.121-.61.18-1.293.18-2.049v-8.064c0-.406.016-.944.046-1.612.03-.698.075-1.351.135-1.962h-3.388c-.722 0-1.234.117-1.535.35-.301.232-.482.711-.543 1.437-.18 2.906-.511 5.434-.993 7.585-.452 2.15-1.054 3.937-1.807 5.36-.723 1.425-1.611 2.485-2.665 3.183-1.024.697-2.198 1.046-3.523 1.046Z"/><path fill="#686868" d="M50.197.196V2.91h-5.099v9.731h-3.502V.196h8.601ZM64.11 6.402c0 .96-.12 1.833-.361 2.622a5.286 5.286 0 0 1-1.112 2.026c-.506.568-1.156 1.005-1.95 1.311-.794.3-1.744.451-2.85.451-1.082 0-2.02-.15-2.814-.451-.788-.306-1.438-.74-1.95-1.302a5.404 5.404 0 0 1-1.138-2.035c-.247-.789-.37-1.669-.37-2.64 0-1.293.22-2.417.662-3.37A4.834 4.834 0 0 1 54.29.792C55.221.264 56.408 0 57.855 0c1.47 0 2.665.264 3.582.792a4.745 4.745 0 0 1 2.03 2.23c.428.96.643 2.086.643 3.38Zm-8.875 0c0 .75.088 1.393.265 1.932.176.54.456.954.838 1.243.382.29.882.434 1.5.434.64 0 1.15-.144 1.526-.434.382-.29.656-.703.82-1.243.17-.539.256-1.183.256-1.932 0-1.124-.194-2.012-.582-2.665-.388-.652-1.056-.979-2.003-.979-.63 0-1.138.148-1.526.443-.382.295-.662.715-.838 1.26-.17.545-.256 1.192-.256 1.94Zm16.948-3.627c-.412 0-.78.085-1.103.256a2.31 2.31 0 0 0-.83.723c-.229.318-.405.707-.529 1.167-.117.454-.176.97-.176 1.549 0 .783.103 1.442.309 1.975.205.534.517.937.935 1.209.423.272.953.409 1.588.409.576 0 1.129-.077 1.658-.23a16.986 16.986 0 0 0 1.615-.554v2.844c-.57.244-1.156.42-1.756.528-.594.107-1.226.161-1.897.161-1.4 0-2.546-.266-3.44-.8a4.874 4.874 0 0 1-1.968-2.239c-.417-.953-.626-2.06-.626-3.32 0-.942.135-1.805.406-2.588a5.81 5.81 0 0 1 1.208-2.035A5.278 5.278 0 0 1 69.536.494c.782-.318 1.676-.477 2.682-.477.623 0 1.28.071 1.967.213.694.136 1.37.357 2.03.664L75.147 3.54c-.47-.215-.947-.397-1.43-.544a5.22 5.22 0 0 0-1.534-.222Zm11.68 9.867H80.38V2.946h-3.15V.196h9.775v2.75h-3.14v9.696ZM88.849.196h3.246V5.89a40.043 40.043 0 0 1-.079 2.41c-.017.243-.038.459-.062.646h.07L97.336.196h3.997v12.446h-3.256V7.253c0-.233.004-.496.009-.791l.035-.911.053-.903c.024-.29.047-.542.07-.758h-.079l-5.31 8.752h-4.006V.196Zm26.335 12.446h-3.503V7.568h-4.049v5.074h-3.502V.196h3.502V4.81h4.049V.196h3.503v12.446ZM117.98.196h3.247V5.89c0 .255-.004.525-.009.809-.007.278-.016.553-.028.826a26.5 26.5 0 0 1-.043.774c-.018.244-.039.46-.062.647h.07l5.311-8.751h3.997v12.446h-3.255V7.253c0-.233.003-.496.008-.791l.035-.911.054-.903c.023-.29.047-.542.07-.758h-.079l-5.311 8.752h-4.005V.196Zm28.575 9.688v6.631h-3.396v-3.873h-9.899V.196h3.503v9.688h3.582V.196h3.502v9.688h2.708Zm9.634 2.758-.635-2.333h-4.191l-.653 2.333h-3.828L151.09.145h4.65L160 12.642h-3.811Zm-1.358-5.09-.556-2.044c-.06-.221-.144-.536-.256-.945-.112-.414-.224-.84-.336-1.277a37.874 37.874 0 0 1-.246-1.09c-.054.284-.129.636-.23 1.056-.094.414-.194.826-.3 1.234-.1.41-.188.75-.264 1.022l-.556 2.043h2.744Z"/></svg>