<svg xmlns="http://www.w3.org/2000/svg" width="60" height="60" fill="none"><rect width="60" height="60" fill="#C652EE" rx="10"/><path fill="#fff" d="M29.21 15.004c-2.536.03-7.99.425-11.04 3.081-2.269 2.134-3.061 5.29-3.154 9.19-.077 3.888-.17 11.189 7.243 13.176v3.028s-.046 1.211.798 1.46c1.039.312 1.63-.62 2.618-1.621l1.842-1.978c5.073.4 8.957-.522 9.405-.659 1.03-.312 6.827-1.015 7.774-8.317.972-7.54-.473-12.29-3.082-14.44h-.016c-.787-.688-3.951-2.877-11.02-2.9 0 0-.524-.035-1.368-.02Zm.087 2.12c.72-.004 1.158.025 1.158.025 5.983.015 8.839 1.724 9.512 2.3 2.197 1.787 3.33 6.07 2.5 12.365-.787 6.104-5.489 6.49-6.359 6.754-.37.112-3.792.913-8.103.65 0 0-3.21 3.677-4.213 4.624-.16.166-.345.214-.464.19-.17-.04-.221-.24-.211-.513l.03-5.024c-6.287-1.65-5.916-7.877-5.85-11.13.078-3.253.72-5.914 2.635-7.716 2.577-2.212 7.208-2.51 9.363-2.525h.002Zm.474 3.252a.411.411 0 0 0-.279.107.372.372 0 0 0-.117.264c0 .21.18.376.396.376a7.776 7.776 0 0 1 2.864.49c.912.341 1.743.85 2.446 1.498 1.435 1.323 2.134 3.1 2.161 5.425 0 .205.175.376.396.376v-.015a.406.406 0 0 0 .279-.108.366.366 0 0 0 .117-.263 7.706 7.706 0 0 0-.55-3.21 8.036 8.036 0 0 0-1.837-2.743c-1.564-1.45-3.545-2.198-5.875-2.198v.001Zm-5.206.86a1.292 1.292 0 0 0-.808.15h-.02a6.143 6.143 0 0 0-1.508 1.177c-.36.396-.556.797-.608 1.182-.03.23-.01.46.063.679l.025.015a16.518 16.518 0 0 0 1.585 3.248 19.191 19.191 0 0 0 3.056 3.965l.035.049.057.039.035.04.042.033a20.399 20.399 0 0 0 4.188 2.915c1.738.898 2.793 1.323 3.426 1.5v.009c.186.053.355.078.525.078a2.488 2.488 0 0 0 1.451-.591 5.753 5.753 0 0 0 1.225-1.436v-.01c.303-.541.2-1.054-.237-1.4a18.252 18.252 0 0 0-2.83-1.93c-.674-.346-1.358-.136-1.636.215l-.592.708c-.303.352-.854.303-.854.303l-.016.01c-4.11-.997-5.206-4.947-5.206-4.947s-.052-.538.328-.811l.741-.567c.355-.274.602-.923.222-1.563a16.918 16.918 0 0 0-2.027-2.686 1.138 1.138 0 0 0-.664-.376l.002.002Zm5.89 1.114c-.524 0-.524.752.005.752.652.01 1.296.142 1.894.388a4.98 4.98 0 0 1 1.594 1.047c.413.433.731.94.935 1.493.203.552.287 1.137.248 1.72a.369.369 0 0 0 .118.263.41.41 0 0 0 .278.109l.016.02a.41.41 0 0 0 .28-.112.37.37 0 0 0 .116-.265c.036-1.49-.452-2.74-1.41-3.74-.962-1.002-2.304-1.564-4.018-1.675h-.056Zm.649 2.021c-.54-.015-.561.752-.026.767 1.302.064 1.934.688 2.017 1.973.002.097.044.19.117.259a.404.404 0 0 0 .274.107h.016a.416.416 0 0 0 .279-.124.376.376 0 0 0 .102-.276c-.093-1.675-1.055-2.618-2.763-2.705h-.016Z"/></svg>